<?xml version="1.0" encoding="utf-8"?>
<!-- Generator: Adobe Illustrator 16.0.0, SVG Export Plug-In . SVG Version: 6.00 Build 0)  -->
<!DOCTYPE svg PUBLIC "-//W3C//DTD SVG 1.1//EN" "http://www.w3.org/Graphics/SVG/1.1/DTD/svg11.dtd">
<svg version="1.1" id="圖層_1" xmlns="http://www.w3.org/2000/svg" xmlns:xlink="http://www.w3.org/1999/xlink" x="0px" y="0px"
	 width="298px" height="55px" viewBox="0 0 298 55" enable-background="new 0 0 298 55" xml:space="preserve">
<g>
	<g>
		<path fill="#008CD6" d="M15,15.21h5.678v4.344H15V15.21z M15,21.55h5.678v18.957H15V21.55z"/>
		<path fill="#008CD6" d="M23.339,15.49h14.472v4.765h-8.584v5.012h8.059v4.765h-8.059v10.477h-5.888V15.49z"/>
		<path fill="#008CD6" d="M38.968,27.369c0.035-2.592,0.805-4.171,2.137-5.082c1.333-0.91,2.943-1.227,5.291-1.227
			c4.661,0,6.729,1.613,6.729,5.606v9.742c0,1.438,0,3.258,0.665,4.099h-5.467c-0.21-0.666-0.279-1.435-0.314-2.172h-0.07
			C47.167,40.018,45.38,41,43.487,41c-3.188,0-5.045-1.682-5.045-5.784c0-2.207,0.911-4.064,2.313-4.833
			c1.4-0.772,3.502-1.121,5.08-1.541c1.717-0.458,2.032-0.738,2.032-2.175c0-1.155-0.526-1.89-1.786-1.89
			c-1.578,0-2.033,0.945-2.068,2.592H38.968z M45.554,37.074c1.192,0,2.278-0.7,2.278-2.592c0-1.576,0.035-2.558,0.035-3.33
			c-1.786,0.948-2.558,0.982-3.082,1.403c-0.596,0.455-0.877,1.051-0.877,2.103C43.908,36.164,44.503,37.074,45.554,37.074z"/>
		<path fill="#008CD6" d="M65.038,28.7c0-2.769-0.631-3.923-2.137-3.923c-1.893,0-2.137,2.382-2.137,6.271
			c0,4.274,0.245,6.236,2.137,6.236c1.682,0,2.067-1.155,2.137-4.485h5.256C70.258,38.652,67.946,41,62.794,41
			c-7.147,0-7.708-5.012-7.708-10.652c0-5.326,1.542-9.287,7.708-9.287c5.957,0,7.5,3.12,7.5,7.64H65.038z"/>
		<path fill="#008CD6" d="M72.43,25.477h-2.348V21.55h2.348v-5.571h5.678v5.571h2.627v3.926h-2.627v9.566
			c0,1.331,0.49,1.751,1.822,1.751c0.245,0,0.561-0.035,0.805-0.069v3.782c-1.086,0.141-2.172,0.21-3.258,0.21
			c-3.925,0-5.047-0.7-5.047-5.116V25.477z"/>
		<path fill="#008CD6" d="M81.226,31.082c0-5.674,1.26-10.021,7.813-10.021c6.938,0,7.813,4.24,7.813,9.918
			c0,5.675-1.26,10.021-7.813,10.021C82.102,41,81.226,36.76,81.226,31.082z M89.074,24.777c-1.682,0-2.172,1.645-2.172,6.236
			c0,4.623,0.49,6.271,2.172,6.271c1.753,0,2.103-1.576,2.103-6.236C91.177,26.353,90.827,24.777,89.074,24.777z"/>
		<path fill="#008CD6" d="M98.5,21.55h5.466v2.665h0.068c0.738-1.682,2.174-3.154,4.557-3.154c0.28,0,0.56,0,0.911,0.072v5.323
			c-0.562-0.104-1.017-0.138-1.577-0.138c-2.277,0-3.749,0.945-3.749,3.434v10.756H98.5V21.55z"/>
		<path fill="#008CD6" d="M109.363,21.55h5.887l2.313,13.282h0.069l2.208-13.282h5.676l-5.081,19.098
			c-1.296,4.87-2.627,6.028-7.043,6.028c-0.91,0-1.717,0-2.452-0.072V42.61c0.456,0.069,0.945,0.141,1.4,0.141
			c1.088,0,2.068-0.455,2.384-2.103L109.363,21.55z"/>
		<path fill="#008CD6" d="M131.894,15h4.765l-7.99,26h-4.766L131.894,15z"/>
		<path fill="#ADB5C4" d="M137.395,15.49h8.725c5.816,0,8.303,3.013,8.303,11.704c0,9.074-1.154,13.314-8.898,13.314h-8.129V15.49z
			 M143.28,36.164h1.577c2.732,0,3.68-1.086,3.68-8.584c0-6.098-0.49-7.746-3.609-7.746h-1.647V36.164z"/>
		<path fill="#ADB5C4" d="M156.28,27.369c0.034-2.592,0.807-4.171,2.138-5.082c1.33-0.91,2.943-1.227,5.291-1.227
			c4.66,0,6.727,1.613,6.727,5.606v9.742c0,1.438,0,3.258,0.665,4.099h-5.464c-0.211-0.666-0.281-1.435-0.317-2.172h-0.069
			C164.479,40.018,162.692,41,160.8,41c-3.188,0-5.046-1.682-5.046-5.784c0-2.207,0.912-4.064,2.313-4.833
			c1.402-0.772,3.506-1.121,5.081-1.541c1.717-0.458,2.032-0.738,2.032-2.175c0-1.155-0.525-1.89-1.787-1.89
			c-1.576,0-2.031,0.945-2.066,2.592H156.28z M162.868,37.074c1.189,0,2.276-0.7,2.276-2.592c0-1.576,0.035-2.558,0.035-3.33
			c-1.787,0.948-2.558,0.982-3.084,1.403c-0.596,0.455-0.875,1.051-0.875,2.103C161.221,36.164,161.816,37.074,162.868,37.074z"/>
		<path fill="#ADB5C4" d="M177.375,34.481c0.034,0.841,0.104,1.576,0.385,2.137c0.314,0.527,0.841,0.875,1.752,0.875
			c1.331,0,2.031-0.841,2.031-1.927c0-0.876-0.421-1.717-2.172-2.313c-4.661-1.576-6.902-2.486-6.902-6.481
			c0-3.785,2.662-5.712,7.218-5.712c5.326,0,6.868,2.593,6.868,5.326v0.631h-5.047v-0.351c0-1.645-0.665-2.1-1.855-2.1
			c-1.509,0-1.93,0.734-1.93,1.751c0,3.364,9.077,1.121,9.077,8.48c0,3.816-2.558,6.202-7.253,6.202
			c-5.082,0-7.219-1.893-7.219-5.678v-0.841H177.375z"/>
		<path fill="#ADB5C4" d="M188.377,15.49h5.676v8.129h0.069c0.912-1.858,2.419-2.558,4.347-2.558c3.224,0,4.94,1.613,4.94,5.257
			v14.189h-5.678V27.58c0-1.369-0.595-2.172-1.646-2.172c-1.086,0-2.033,0.838-2.033,2.696v12.404h-5.676V15.49z"/>
		<path fill="#ADB5C4" d="M205.688,15.49h5.675v8.129h0.071c0.945-2.031,2.662-2.558,4.24-2.558c4.658,0,5.5,4.24,5.5,10.128
			c0,7.077-2.031,9.811-5.851,9.811c-2.523,0-3.68-1.509-4.101-2.806h-0.07v2.313h-5.465V15.49z M213.289,36.863
			c2.138,0,2.209-2.906,2.209-5.957c0-3.434-0.105-5.709-2.172-5.709c-1.93,0-2.067,2.592-2.067,5.954
			C211.259,34.833,211.607,36.863,213.289,36.863z"/>
		<path fill="#ADB5C4" d="M222.366,31.082c0-5.674,1.261-10.021,7.812-10.021c6.939,0,7.815,4.24,7.815,9.918
			c0,5.675-1.262,10.021-7.815,10.021C223.242,41,222.366,36.76,222.366,31.082z M230.215,24.777c-1.683,0-2.174,1.645-2.174,6.236
			c0,4.623,0.491,6.271,2.174,6.271c1.752,0,2.102-1.576,2.102-6.236C232.316,26.353,231.967,24.777,230.215,24.777z"/>
		<path fill="#ADB5C4" d="M239.535,27.369c0.033-2.592,0.806-4.171,2.137-5.082c1.332-0.91,2.943-1.227,5.291-1.227
			c4.661,0,6.729,1.613,6.729,5.606v9.742c0,1.438,0,3.258,0.665,4.099h-5.466c-0.211-0.666-0.279-1.435-0.315-2.172h-0.071
			c-0.77,1.682-2.557,2.665-4.449,2.665c-3.189,0-5.045-1.682-5.045-5.784c0-2.207,0.91-4.064,2.313-4.833
			c1.4-0.772,3.504-1.121,5.08-1.541c1.717-0.458,2.033-0.738,2.033-2.175c0-1.155-0.527-1.89-1.787-1.89
			c-1.578,0-2.033,0.945-2.067,2.592H239.535z M246.122,37.074c1.191,0,2.278-0.7,2.278-2.592c0-1.576,0.035-2.558,0.035-3.33
			c-1.787,0.948-2.559,0.982-3.086,1.403c-0.594,0.455-0.875,1.051-0.875,2.103C244.475,36.164,245.07,37.074,246.122,37.074z"/>
		<path fill="#ADB5C4" d="M256.285,21.55h5.466v2.665h0.07c0.735-1.682,2.172-3.154,4.554-3.154c0.281,0,0.563,0,0.912,0.072v5.323
			c-0.561-0.104-1.016-0.138-1.577-0.138c-2.278,0-3.749,0.945-3.749,3.434v10.756h-5.676V21.55z"/>
		<path fill="#ADB5C4" d="M277.52,38.194h-0.071C277.027,39.491,275.873,41,273.35,41c-3.82,0-5.852-2.734-5.852-9.811
			c0-5.888,0.841-10.128,5.5-10.128c1.578,0,3.295,0.527,4.24,2.558h0.07V15.49h5.676v25.018h-5.465V38.194z M275.346,25.197
			c-2.066,0-2.172,2.275-2.172,5.709c0,3.051,0.07,5.957,2.208,5.957c1.681,0,2.032-2.031,2.032-5.712
			C277.414,27.79,277.273,25.197,275.346,25.197z"/>
	</g>
</g>
<rect fill="none" width="298" height="55"/>
</svg>
