<?xml version="1.0" encoding="UTF-8"?>
<!DOCTYPE svg PUBLIC "-//W3C//DTD SVG 1.1//EN" "http://www.w3.org/Graphics/SVG/1.1/DTD/svg11.dtd">
<!-- Creator: CorelDRAW X7 -->
<svg xmlns="http://www.w3.org/2000/svg" xml:space="preserve" width="155.222mm" height="50.8004mm" version="1.1" style="shape-rendering:geometricPrecision; text-rendering:geometricPrecision; image-rendering:optimizeQuality; fill-rule:evenodd; clip-rule:evenodd"
viewBox="0 0 1693538 554253"
 xmlns:xlink="http://www.w3.org/1999/xlink">
 <defs>
  <style type="text/css">
   <![CDATA[
    .fil2 {fill:none}
    .fil3 {fill:#5AC8FA}
    .fil0 {fill:#FEFEFE;fill-rule:nonzero}
    .fil1 {fill:#5AC8FA;fill-rule:nonzero}
   ]]>
  </style>
 </defs>
 <g id="圖層_x0020_1">
  <metadata id="CorelCorpID_0Corel-Layer"/>
  <polygon class="fil0" points="828113,148938 877011,148938 795040,415689 746149,415689 "/>
  <polygon class="fil1" points="157856,153971 246299,153971 277936,322576 278654,322576 309210,153971 396573,153971 396573,410654 340491,410654 340491,210772 339771,210772 300583,410654 253846,410654 212502,210772 211783,210772 211783,410654 157856,410654 "/>
  <path class="fil1" d="M422154 235536l0 -8536c0,-52686 28198,-79027 84592,-79027 63819,0 81258,32279 81258,73464 0,39329 -8910,54164 -41558,85333 -25602,24487 -44895,40811 -51201,55651l93128 0 0 48233 -167705 0c0,-61957 37476,-98688 59367,-118358 44893,-40065 45636,-50824 45636,-70492 0,-20771 -4083,-34503 -21892,-34503 -23744,0 -23744,28197 -23744,48235l-57881 0z"/>
  <polygon class="fil1" points="637062,153971 697461,153971 697461,410654 637062,410654 "/>
  <path class="fil0" d="M1019188 412066c-16051,0 -30819,-2823 -44401,-8469 -13582,-5646 -25238,-14057 -34968,-25233 -9779,-11116 -17335,-25056 -22669,-41759 -5384,-16705 -8051,-35997 -8051,-57877 0,-20350 2568,-38819 7656,-55405 5135,-16587 12594,-30820 22322,-42642 9385,-11411 20992,-20234 34821,-26409 13879,-6235 28992,-9352 45439,-9352 9038,0 17237,588 24546,1823 7261,1176 14027,2765 20200,4705 6470,2236 12299,4647 17584,7353 5283,2705 9878,5176 13829,7528l0 62229 -6372 0c-2717,-2765 -6124,-6000 -10223,-9764 -4100,-3764 -8743,-7470 -13978,-11117 -5285,-3646 -11063,-6705 -17237,-9234 -6173,-2529 -12791,-3764 -19804,-3764 -7855,0 -15263,1470 -22325,4411 -7063,2882 -13583,7764 -19558,14528 -5680,6588 -10323,15233 -13830,25997 -3506,10823 -5284,23939 -5284,39290 0,16116 1926,29526 5729,40348 3803,10764 8594,19293 14421,25468 5878,6352 12447,10822 19657,13528 7261,2705 14422,4058 21435,4058 6768,0 13484,-1176 20102,-3588 6569,-2352 12694,-5587 18324,-9705 4692,-3294 9088,-6763 13138,-10527 4050,-3766 7408,-7000 10025,-9705l5780 0 0 61287c-5385,2822 -10569,5528 -15509,8057 -4890,2529 -10076,4706 -15509,6529 -7013,2412 -13630,4235 -19804,5529 -6174,1235 -14669,1882 -25486,1882z"/>
  <polygon id="1" class="fil0" points="1322040,406773 1268453,406773 1177132,230674 1177132,406773 1126161,406773 1126161,150213 1192591,150213 1271070,297197 1271070,150213 1322040,150213 "/>
  <path id="2" class="fil0" d="M1464278 412066c-16052,0 -30820,-2823 -44401,-8469 -13582,-5646 -25239,-14057 -34969,-25233 -9779,-11116 -17335,-25056 -22669,-41759 -5384,-16705 -8050,-35997 -8050,-57877 0,-20350 2567,-38819 7655,-55405 5136,-16587 12594,-30820 22323,-42642 9385,-11411 20992,-20234 34820,-26409 13879,-6235 28992,-9352 45440,-9352 9038,0 17236,588 24546,1823 7260,1176 14026,2765 20199,4705 6471,2236 12299,4647 17584,7353 5285,2705 9878,5176 13829,7528l0 62229 -6371 0c-2717,-2765 -6125,-6000 -10224,-9764 -4100,-3764 -8742,-7470 -13978,-11117 -5285,-3646 -11063,-6705 -17237,-9234 -6173,-2529 -12791,-3764 -19804,-3764 -7854,0 -15262,1470 -22324,4411 -7064,2882 -13583,7764 -19559,14528 -5680,6588 -10323,15233 -13829,25997 -3507,10823 -5285,23939 -5285,39290 0,16116 1927,29526 5730,40348 3802,10764 8593,19293 14421,25468 5878,6352 12446,10822 19658,13528 7260,2705 14421,4058 21434,4058 6767,0 13484,-1176 20101,-3588 6570,-2352 12694,-5587 18324,-9705 4693,-3294 9088,-6763 13138,-10527 4050,-3766 7409,-7000 10026,-9705l5779 0 0 61287c-5384,2822 -10569,5528 -15509,8057 -4888,2529 -10075,4706 -15509,6529 -7013,2412 -13630,4235 -19804,5529 -6174,1235 -14669,1882 -25485,1882z"/>
  <rect class="fil2" width="1693538" height="554253"/>
  <rect class="fil3" x="612469" y="153971" width="109584" height="37401"/>
  <rect class="fil3" x="612469" y="373253" width="109584" height="37401"/>
 </g>
</svg>
