<?xml version="1.0" encoding="UTF-8"?>
<!DOCTYPE svg PUBLIC "-//W3C//DTD SVG 1.1//EN" "http://www.w3.org/Graphics/SVG/1.1/DTD/svg11.dtd">
<!-- Creator: CorelDRAW X7 -->
<svg xmlns="http://www.w3.org/2000/svg" xml:space="preserve" width="21.863mm" height="21.8628mm" version="1.1" style="shape-rendering:geometricPrecision; text-rendering:geometricPrecision; image-rendering:optimizeQuality; fill-rule:evenodd; clip-rule:evenodd"
viewBox="0 0 32394 32394"
 xmlns:xlink="http://www.w3.org/1999/xlink">
 <defs>
  <style type="text/css">
   <![CDATA[
    .fil0 {fill:none}
    .fil1 {fill:#5AC8FA}
    .fil2 {fill:#5AC8FA;fill-rule:nonzero}
   ]]>
  </style>
 </defs>
 <g id="圖層_x0020_1">
  <metadata id="CorelCorpID_0Corel-Layer"/>
  <g id="_962547648">
   <rect class="fil0" width="32394" height="32394"/>
   <rect class="fil0" width="32394" height="32394"/>
   <polygon class="fil1" points="16893,15269 19677,7845 10397,18052 15965,18052 12253,24548 21997,15269 "/>
   <polygon class="fil2" points="6035,9301 9191,4355 10018,5738 10040,5725 10065,5711 10089,5696 10124,5676 10149,5662 10174,5648 10202,5632 10227,5618 10254,5602 10283,5586 10312,5570 10339,5555 10364,5541 10393,5525 10422,5510 10447,5496 10475,5482 10500,5468 10529,5453 10558,5437 10584,5424 10613,5409 10640,5395 10666,5382 10695,5367 10727,5351 10750,5339 10775,5326 10807,5311 10833,5298 10864,5282 10894,5268 10918,5257 10945,5243 10971,5231 11001,5217 11033,5202 11059,5190 11089,5176 11115,5164 11140,5152 11171,5138 11202,5123 11228,5112 11254,5100 11285,5087 11311,5076 11343,5061 11373,5048 11399,5037 11425,5026 11451,5015 11482,5002 11513,4989 11540,4977 11571,4965 11597,4954 11626,4942 11655,4931 11685,4918 11713,4907 11739,4897 11770,4885 11801,4873 11829,4862 11856,4851 11885,4840 11913,4830 11944,4818 11975,4806 12004,4796 12029,4787 12055,4777 12088,4765 12119,4754 12146,4745 12179,4733 12206,4724 12231,4715 12264,4704 12295,4693 12322,4684 12349,4675 12380,4664 12413,4654 12440,4645 12467,4636 12499,4626 12531,4616 12558,4607 12585,4599 12616,4589 12645,4580 12676,4571 12708,4561 12735,4553 12762,4545 12790,4537 12821,4528 12855,4518 12882,4510 12914,4501 12941,4494 12969,4486 13006,4476 13033,4469 13060,4461 13093,4452 13121,4445 13147,4439 13180,4430 13214,4421 13240,4415 13267,4408 13301,4400 13332,4392 13359,4385 13388,4379 13420,4371 13448,4365 13480,4357 13513,4350 13536,4344 13569,4337 13602,4329 13633,4323 13662,4317 13690,4311 13722,4304 13750,4298 13782,4291 13810,4286 13838,4280 13876,4273 13904,4268 13931,4262 13964,4256 13992,4251 14025,4245 14053,4240 14081,4235 14119,4228 14147,4223 14175,4218 14208,4213 14235,4209 14264,4204 14297,4198 14329,4193 14358,4189 14391,4184 14419,4180 14447,4176 14485,4170 14514,4166 14541,4162 14574,4158 14603,4154 14631,4150 14664,4146 14697,4142 14725,4139 14752,4135 14786,4131 14820,4128 14848,4124 14882,4120 14909,4118 14937,4115 14971,4111 15004,4108 15032,4105 15061,4102 15093,4099 15127,4096 15161,4093 15183,4092 15217,4089 15250,4086 15278,4084 15312,4081 15340,4079 15369,4077 15402,4075 15436,4073 15464,4071 15492,4070 15525,4068 15559,4066 15587,4064 15616,4063 15649,4061 15683,4060 15711,4059 15744,4057 15773,4057 15801,4056 15835,4054 15868,4053 15896,4053 15925,4052 15964,4051 15992,4051 16021,4050 16054,4050 16082,4050 16111,4049 16144,4049 16178,4049 16206,4049 16240,4049 16268,4049 16297,4049 16330,4050 16363,4050 16397,4051 16426,4051 16454,4052 16482,4052 16516,4053 16549,4054 16578,4055 16612,4056 16645,4057 16674,4058 16702,4060 16731,4061 16764,4062 16798,4064 16831,4066 16860,4067 16889,4069 16922,4071 16950,4072 16984,4074 17017,4077 17046,4079 17075,4081 17108,4083 17141,4086 17170,4088 17199,4090 17232,4093 17265,4096 17294,4099 17323,4101 17356,4104 17390,4108 17419,4111 17447,4113 17480,4117 17514,4121 17542,4124 17574,4127 17611,4132 17650,4136 17688,4141 17722,4145 17761,4150 17799,4155 17833,4160 17872,4165 17911,4170 17945,4175 17983,4181 18026,4188 18060,4193 18094,4198 18132,4204 18170,4210 18209,4217 18243,4222 18281,4229 18319,4236 18357,4243 18395,4249 18429,4256 18463,4262 18501,4269 18543,4278 18578,4285 18610,4291 18648,4299 18687,4307 18724,4315 18762,4323 18796,4330 18829,4338 18871,4347 18908,4356 18942,4363 18976,4371 19014,4380 19051,4389 19088,4398 19126,4407 19160,4416 19197,4425 19234,4435 19268,4444 19304,4453 19341,4463 19375,4472 19413,4483 19450,4493 19482,4502 19520,4512 19558,4523 19593,4533 19626,4543 19664,4554 19701,4565 19734,4575 19771,4587 19803,4597 19840,4608 19876,4620 19914,4631 19950,4643 19983,4654 20020,4666 20056,4678 20089,4689 20121,4700 20157,4713 20194,4726 20230,4738 20266,4751 20300,4763 20335,4775 20371,4789 20404,4801 20440,4814 20475,4828 20507,4840 20539,4852 20576,4866 20615,4881 20647,4894 20680,4907 20715,4921 20751,4935 20787,4950 20819,4963 20854,4977 20889,4992 20920,5005 20957,5020 20990,5035 21024,5049 21059,5065 21090,5078 21125,5093 21161,5109 21195,5125 21228,5140 21259,5154 21293,5170 21329,5186 21362,5202 21398,5219 21430,5234 21459,5248 21495,5265 21531,5282 21563,5298 21599,5316 21630,5332 21659,5346 21694,5364 21728,5381 21758,5397 21794,5415 21829,5433 21859,5449 21892,5467 21925,5485 21956,5501 21990,5520 22022,5537 22055,5555 22088,5573 22119,5591 22150,5608 22185,5628 22217,5645 22247,5663 22282,5683 22313,5701 22346,5720 22375,5738 22409,5758 22441,5777 22471,5795 22505,5815 22534,5833 22566,5852 22600,5874 22630,5892 22662,5912 22694,5932 22723,5951 22751,5969 22788,5992 22818,6012 22847,6031 22881,6053 22909,6072 22940,6092 22973,6114 23004,6135 23035,6157 23063,6176 23093,6196 23126,6219 23157,6241 23185,6260 23215,6282 23248,6305 23277,6326 23305,6346 23335,6368 23366,6390 23398,6413 23427,6435 23455,6455 23487,6480 23516,6502 23543,6522 23574,6545 23605,6569 23635,6592 23664,6615 23693,6637 23722,6660 23751,6684 23778,6705 23810,6730 23836,6752 23863,6773 23898,6802 23927,6826 23953,6848 23981,6871 24008,6893 24036,6917 24067,6943 24095,6967 24124,6992 24154,7018 24179,7040 24208,7065 24235,7089 24263,7114 24291,7138 24319,7163 24348,7190 24374,7213 24401,7238 24429,7264 24456,7289 24483,7314 24511,7339 24540,7367 24564,7390 24592,7416 24623,7446 24647,7470 24672,7494 24699,7520 24727,7548 24754,7574 24776,7596 24804,7625 24833,7653 24861,7682 24885,7706 24909,7731 24937,7760 24963,7787 24991,7816 25016,7843 25040,7868 25063,7893 25091,7922 25118,7952 25144,7979 25167,8005 25190,8030 25217,8060 25244,8090 25271,8120 25294,8146 25317,8172 25342,8200 25368,8231 25392,8259 25417,8287 25441,8316 25466,8344 25490,8373 25514,8401 25538,8430 25562,8459 25587,8490 25609,8517 25635,8549 25658,8578 25680,8605 25705,8636 24120,9896 24102,9873 24080,9846 24060,9821 24042,9799 24020,9772 24002,9749 23982,9726 23962,9701 23941,9677 23921,9653 23901,9629 23880,9605 23859,9581 23839,9557 23820,9536 23799,9512 23777,9486 23754,9461 23735,9439 23716,9418 23697,9397 23674,9372 23650,9346 23629,9323 23610,9302 23590,9281 23567,9256 23543,9231 23522,9209 23502,9188 23480,9166 23461,9145 23436,9121 23413,9096 23393,9076 23373,9056 23353,9036 23326,9010 23304,8988 23284,8968 23262,8946 23237,8923 23213,8899 23194,8881 23172,8860 23147,8836 23126,8817 23104,8796 23081,8774 23058,8753 23035,8732 23012,8711 22986,8688 22966,8669 22942,8648 22919,8628 22896,8607 22873,8586 22849,8566 22823,8544 22802,8525 22778,8505 22755,8485 22733,8466 22710,8447 22684,8425 22660,8405 22633,8383 22610,8363 22593,8349 22566,8328 22539,8307 22518,8289 22491,8268 22467,8249 22443,8230 22418,8211 22393,8191 22369,8172 22347,8155 22322,8137 22295,8116 22270,8097 22248,8081 22221,8061 22196,8042 22173,8026 22148,8007 22123,7990 22096,7970 22070,7951 22047,7935 22022,7918 21994,7898 21970,7881 21947,7865 21921,7847 21892,7828 21867,7811 21842,7794 21819,7778 21793,7761 21764,7742 21741,7727 21713,7709 21687,7691 21666,7678 21637,7660 21609,7641 21583,7625 21557,7609 21531,7592 21507,7577 21481,7562 21452,7544 21428,7530 21399,7512 21373,7497 21348,7482 21319,7465 21293,7450 21266,7434 21241,7420 21213,7404 21186,7388 21161,7374 21133,7358 21105,7343 21078,7328 21052,7314 21024,7299 20999,7285 20969,7269 20943,7255 20916,7241 20886,7225 20861,7212 20836,7199 20806,7183 20779,7170 20753,7157 20721,7141 20693,7127 20667,7114 20639,7100 20613,7088 20588,7075 20555,7060 20527,7046 20501,7034 20472,7020 20447,7008 20419,6996 20389,6982 20359,6969 20332,6956 20306,6945 20278,6932 20247,6919 20219,6907 20192,6895 20162,6883 20136,6871 20105,6858 20077,6846 20049,6835 20018,6822 19991,6811 19964,6800 19936,6789 19906,6777 19874,6765 19850,6755 19823,6745 19791,6733 19759,6721 19731,6710 19703,6700 19673,6689 19644,6679 19616,6668 19585,6657 19557,6647 19529,6637 19502,6628 19473,6618 19441,6607 19408,6596 19380,6587 19353,6578 19320,6567 19292,6558 19265,6549 19235,6540 19207,6531 19174,6521 19146,6512 19114,6503 19086,6494 19058,6486 19025,6476 18995,6468 18967,6460 18939,6452 18905,6442 18876,6434 18848,6427 18817,6418 18787,6410 18757,6402 18725,6394 18696,6387 18667,6379 18634,6371 18605,6364 18576,6357 18547,6350 18517,6343 18485,6335 18452,6328 18422,6321 18397,6315 18363,6308 18331,6301 18301,6295 18272,6288 18243,6282 18213,6276 18179,6269 18146,6263 18120,6258 18091,6252 18058,6246 18024,6240 17994,6234 17964,6229 17935,6223 17905,6218 17872,6213 17841,6208 17812,6203 17782,6198 17748,6193 17714,6187 17689,6184 17659,6179 17624,6175 17595,6170 17565,6166 17530,6162 17500,6158 17470,6154 17436,6150 17406,6146 17376,6142 17344,6139 17319,6136 17291,6133 17267,6130 17243,6128 17215,6125 17187,6122 17163,6120 17140,6118 17111,6115 17083,6112 17059,6110 17036,6108 17008,6106 16979,6104 16955,6102 16932,6100 16904,6098 16875,6096 16852,6095 16829,6093 16800,6091 16776,6090 16748,6089 16720,6087 16696,6086 16672,6085 16649,6084 16621,6082 16592,6081 16564,6080 16540,6079 16517,6078 16489,6078 16465,6077 16442,6077 16413,6076 16385,6075 16357,6075 16333,6074 16309,6074 16286,6074 16258,6074 16229,6073 16206,6074 16178,6074 16155,6073 16131,6074 16103,6074 16074,6074 16051,6074 16023,6075 15994,6075 15976,6076 15948,6077 15919,6077 15896,6078 15873,6078 15844,6080 15816,6081 15793,6082 15765,6083 15741,6084 15718,6085 15690,6086 15662,6088 15638,6089 15615,6090 15587,6092 15558,6094 15535,6095 15512,6097 15484,6099 15456,6101 15432,6102 15404,6105 15381,6106 15358,6108 15325,6111 15301,6113 15279,6115 15255,6117 15227,6120 15199,6123 15176,6125 15153,6127 15125,6130 15096,6134 15073,6136 15045,6139 15022,6142 15000,6145 14972,6148 14943,6151 14920,6154 14897,6157 14869,6161 14841,6165 14819,6168 14790,6172 14763,6175 14745,6178 14717,6182 14689,6186 14666,6190 14639,6194 14615,6198 14592,6202 14565,6206 14537,6210 14513,6214 14485,6219 14458,6224 14440,6227 14412,6232 14385,6237 14362,6241 14335,6246 14312,6250 14284,6256 14256,6261 14239,6265 14211,6270 14184,6276 14161,6281 14133,6286 14110,6291 14082,6297 14056,6303 14032,6308 14009,6313 13988,6318 13955,6325 13933,6330 13910,6335 13882,6342 13860,6347 13833,6353 13806,6360 13782,6366 13761,6371 13734,6378 13705,6385 13683,6391 13662,6396 13633,6404 13606,6411 13585,6417 13557,6424 13530,6431 13513,6436 13485,6444 13458,6451 13435,6458 13408,6465 13387,6471 13365,6478 13337,6486 13311,6494 13283,6502 13261,6509 13239,6516 13213,6524 13191,6531 13164,6539 13137,6547 13115,6555 13092,6561 13065,6570 13038,6579 13017,6586 12995,6593 12968,6603 12942,6611 12919,6619 12899,6626 12870,6636 12843,6645 12823,6652 12796,6662 12774,6670 12754,6677 12727,6687 12699,6697 12674,6707 12652,6715 12630,6723 12605,6732 12581,6741 12555,6752 12530,6761 12508,6770 12486,6778 12460,6789 12435,6798 12413,6807 12390,6817 12365,6827 12339,6838 12317,6847 12292,6857 12271,6866 12249,6875 12223,6887 12197,6898 12171,6909 12149,6918 12129,6927 12103,6938 12081,6948 12055,6960 12029,6971 12009,6980 11988,6990 11962,7002 11936,7014 11915,7024 11889,7036 11869,7045 11848,7056 11822,7068 11799,7079 11771,7093 11749,7103 11730,7113 11704,7125 11685,7135 11660,7148 11632,7161 11613,7171 11591,7182 11566,7195 11543,7207 11521,7218 11496,7231 11475,7243 11454,7254 11428,7268 11405,7280 11380,7293 11359,7305 11338,7316 11313,7330 11290,7343 11269,7354 11248,7366 11225,7379 11200,7393 11179,7405 11154,7419 11129,7433 11115,7442 11090,7457 11065,7471 11058,7475 11885,8858 "/>
   <polygon class="fil2" points="15306,28445 9445,28185 10229,26777 10207,26764 10182,26750 10157,26736 10123,26716 10098,26702 10073,26688 10045,26671 10020,26656 9993,26640 9965,26624 9937,26607 9910,26591 9886,26576 9857,26559 9829,26541 9805,26526 9779,26510 9754,26495 9726,26477 9698,26459 9674,26444 9647,26426 9621,26410 9597,26394 9569,26376 9539,26357 9517,26343 9494,26327 9464,26307 9441,26292 9411,26272 9384,26253 9362,26239 9337,26222 9313,26205 9286,26187 9257,26167 9234,26150 9207,26131 9184,26115 9160,26098 9133,26079 9105,26059 9082,26042 9059,26025 9032,26006 9009,25989 8981,25968 8954,25949 8931,25931 8909,25914 8886,25897 8859,25877 8833,25857 8809,25839 8783,25819 8760,25802 8736,25783 8712,25763 8686,25743 8662,25725 8640,25707 8614,25686 8588,25666 8565,25647 8542,25629 8518,25609 8495,25590 8469,25569 8444,25548 8420,25528 8400,25511 8378,25493 8351,25471 8326,25449 8305,25431 8278,25408 8257,25390 8237,25372 8210,25349 8185,25328 8164,25309 8143,25290 8118,25268 8092,25245 8071,25226 8050,25207 8025,25185 8001,25162 7980,25143 7959,25124 7935,25102 7913,25081 7889,25059 7865,25036 7844,25016 7824,24997 7803,24977 7779,24955 7754,24930 7734,24911 7710,24888 7690,24868 7669,24848 7642,24821 7622,24801 7602,24781 7578,24757 7558,24736 7539,24717 7515,24693 7491,24668 7472,24648 7453,24628 7429,24603 7406,24580 7387,24560 7367,24538 7344,24514 7325,24493 7302,24469 7279,24445 7263,24428 7240,24403 7217,24378 7196,24354 7176,24332 7157,24311 7135,24286 7116,24265 7094,24240 7075,24219 7057,24198 7031,24168 7012,24147 6995,24126 6973,24101 6954,24079 6932,24053 6914,24032 6896,24010 6871,23981 6853,23958 6834,23937 6814,23911 6796,23889 6777,23867 6756,23841 6736,23816 6718,23793 6697,23767 6679,23745 6662,23723 6638,23693 6620,23670 6603,23648 6583,23622 6565,23599 6548,23576 6527,23549 6507,23523 6491,23501 6474,23478 6453,23451 6433,23424 6416,23401 6396,23374 6380,23351 6364,23329 6344,23301 6324,23274 6308,23251 6291,23228 6272,23201 6253,23173 6233,23146 6221,23127 6201,23100 6182,23072 6166,23049 6147,23021 6131,22997 6115,22974 6097,22946 6078,22918 6063,22894 6047,22871 6029,22843 6010,22815 5995,22791 5980,22767 5961,22739 5943,22711 5928,22687 5911,22658 5896,22634 5880,22610 5863,22582 5845,22553 5830,22529 5815,22504 5795,22471 5781,22447 5766,22423 5749,22394 5735,22370 5720,22345 5703,22316 5686,22287 5672,22263 5656,22233 5642,22209 5627,22184 5611,22155 5595,22126 5578,22096 5564,22071 5551,22047 5537,22022 5521,21992 5505,21963 5491,21937 5475,21908 5460,21878 5447,21853 5433,21828 5420,21802 5405,21773 5389,21743 5374,21713 5361,21687 5348,21662 5333,21632 5320,21606 5305,21576 5291,21546 5278,21520 5265,21494 5251,21464 5237,21434 5224,21408 5212,21382 5197,21352 5184,21322 5172,21296 5159,21269 5145,21239 5131,21208 5119,21182 5108,21156 5094,21126 5081,21095 5069,21068 5056,21039 5041,21005 5026,20969 5011,20933 4998,20901 4982,20865 4968,20830 4955,20798 4940,20762 4925,20726 4912,20694 4898,20658 4882,20617 4870,20585 4858,20554 4844,20517 4830,20481 4816,20445 4804,20412 4791,20376 4778,20339 4764,20303 4751,20267 4740,20234 4728,20201 4716,20165 4702,20124 4691,20091 4680,20060 4668,20023 4655,19986 4643,19949 4631,19913 4621,19879 4611,19846 4598,19806 4587,19769 4577,19736 4566,19702 4555,19666 4544,19629 4533,19592 4523,19555 4513,19521 4503,19485 4492,19447 4483,19414 4473,19378 4463,19341 4454,19306 4444,19268 4435,19231 4426,19199 4417,19161 4407,19123 4398,19087 4390,19054 4381,19015 4372,18978 4364,18944 4356,18907 4348,18873 4339,18836 4331,18799 4323,18760 4315,18723 4308,18689 4300,18651 4292,18614 4286,18580 4279,18547 4272,18509 4264,18470 4257,18433 4250,18396 4244,18361 4237,18323 4230,18286 4224,18251 4218,18214 4212,18176 4206,18142 4201,18109 4195,18070 4188,18028 4183,17994 4178,17959 4173,17922 4167,17884 4162,17845 4157,17811 4152,17773 4148,17736 4143,17702 4138,17663 4134,17627 4129,17590 4125,17552 4122,17518 4117,17481 4113,17441 4110,17404 4106,17368 4103,17334 4099,17297 4096,17257 4093,17221 4089,17181 4086,17146 4084,17114 4081,17074 4078,17035 4076,16999 4073,16959 4071,16923 4069,16891 4067,16852 4065,16814 4064,16780 4062,16741 4060,16701 4058,16667 4057,16629 4056,16592 4055,16557 4054,16518 4053,16482 4052,16444 4051,16406 4051,16371 4050,16335 4050,16295 4050,16259 4049,16224 4049,16184 4050,16148 4050,16110 4050,16076 4050,16036 4051,15999 4052,15965 4052,15925 4053,15891 4054,15853 4056,15813 4057,15777 4058,15740 4060,15702 4061,15668 4062,15634 4064,15591 4066,15555 4068,15521 4071,15480 4073,15446 4075,15409 4078,15370 4080,15332 4083,15295 4086,15261 4088,15224 4092,15185 4095,15147 4098,15114 4101,15076 4105,15036 4109,15000 4112,14966 4116,14929 4120,14892 4124,14852 4128,14816 4132,14782 4137,14742 4141,14705 4146,14672 4150,14634 4156,14595 4160,14557 4166,14521 4171,14485 4176,14448 4182,14411 4187,14377 4193,14337 4198,14304 4203,14270 4210,14225 4217,14188 4222,14154 4229,14118 4235,14084 4241,14048 4248,14008 4255,13971 4262,13934 4269,13895 4276,13862 4283,13825 4291,13789 4298,13753 4305,13716 4313,13680 4321,13641 4329,13607 4337,13571 4345,13534 4353,13498 4361,13462 4370,13426 4379,13387 4387,13353 4395,13317 4406,13275 4414,13242 4423,13209 4432,13173 4442,13133 4451,13098 4459,13067 4470,13029 4480,12990 4491,12951 4500,12918 4509,12885 4520,12846 4531,12810 4542,12771 4553,12735 4563,12703 4573,12670 4584,12631 4596,12593 4607,12557 4618,12524 4628,12492 4640,12453 4653,12415 4666,12376 4677,12344 4688,12311 4700,12275 4713,12237 4725,12202 4737,12167 4750,12131 4762,12096 4775,12061 4788,12026 4801,11990 4814,11955 4828,11918 4840,11885 4855,11847 4868,11812 4881,11780 4895,11743 6779,12485 6768,12513 6755,12545 6744,12575 6734,12601 6721,12634 6711,12661 6700,12690 6689,12720 6679,12750 6668,12780 6657,12809 6647,12838 6636,12869 6626,12899 6617,12925 6607,12955 6596,12988 6585,13020 6576,13047 6567,13074 6559,13101 6548,13134 6538,13167 6528,13197 6520,13224 6512,13252 6502,13284 6492,13317 6483,13347 6475,13374 6466,13404 6459,13432 6450,13465 6440,13498 6433,13525 6425,13552 6418,13580 6409,13616 6400,13646 6393,13674 6386,13704 6377,13737 6369,13770 6363,13795 6356,13825 6348,13858 6341,13886 6334,13916 6327,13946 6320,13977 6313,14007 6307,14038 6300,14071 6293,14098 6287,14129 6281,14160 6275,14190 6269,14221 6263,14251 6256,14284 6251,14312 6245,14343 6239,14373 6234,14401 6229,14431 6223,14465 6218,14496 6212,14529 6207,14560 6203,14582 6198,14615 6193,14649 6189,14676 6183,14710 6179,14741 6175,14771 6170,14802 6166,14833 6162,14864 6158,14891 6154,14922 6150,14955 6146,14987 6143,15014 6139,15048 6136,15079 6133,15107 6129,15138 6126,15168 6123,15202 6120,15233 6117,15261 6114,15291 6111,15325 6109,15356 6107,15383 6104,15415 6102,15449 6099,15479 6097,15509 6095,15537 6093,15569 6091,15603 6090,15630 6088,15664 6086,15695 6085,15720 6084,15754 6082,15788 6081,15818 6080,15848 6079,15880 6078,15908 6077,15938 6077,15972 6076,16000 6075,16034 6075,16064 6074,16093 6074,16127 6074,16157 6074,16188 6074,16217 6074,16249 6074,16281 6074,16309 6075,16341 6076,16373 6076,16404 6077,16433 6078,16465 6078,16493 6079,16528 6080,16558 6082,16588 6083,16622 6084,16650 6085,16678 6087,16712 6089,16742 6090,16770 6093,16806 6094,16838 6096,16866 6098,16898 6100,16926 6102,16955 6105,16990 6107,17022 6110,17051 6113,17082 6115,17110 6118,17140 6121,17174 6124,17206 6127,17236 6130,17264 6133,17294 6137,17328 6141,17358 6144,17388 6148,17420 6151,17448 6156,17482 6159,17512 6164,17541 6168,17575 6172,17603 6176,17633 6180,17663 6185,17695 6190,17729 6194,17754 6199,17782 6204,17816 6210,17849 6215,17879 6220,17909 6225,17941 6230,17970 6236,18000 6241,18032 6247,18062 6253,18091 6258,18119 6264,18149 6271,18182 6277,18216 6283,18245 6289,18273 6296,18307 6302,18336 6308,18364 6315,18393 6321,18422 6329,18456 6336,18485 6343,18517 6350,18546 6357,18574 6365,18608 6373,18638 6379,18666 6387,18694 6395,18728 6403,18757 6410,18785 6419,18817 6427,18847 6435,18877 6444,18909 6452,18938 6460,18967 6469,18999 6478,19028 6486,19056 6494,19085 6503,19114 6513,19146 6523,19179 6532,19207 6540,19232 6550,19265 6560,19297 6569,19325 6579,19354 6588,19382 6598,19411 6609,19444 6619,19476 6628,19500 6638,19529 6649,19561 6661,19593 6671,19622 6681,19650 6691,19679 6702,19707 6713,19738 6724,19767 6735,19795 6746,19823 6758,19856 6770,19888 6780,19911 6791,19940 6804,19972 6815,20000 6827,20027 6840,20059 6852,20088 6863,20115 6876,20147 6888,20175 6900,20203 6913,20232 6923,20256 6934,20281 6944,20303 6954,20325 6966,20351 6977,20377 6987,20398 6997,20420 7009,20446 7021,20472 7031,20493 7041,20514 7053,20540 7065,20566 7075,20587 7086,20608 7098,20634 7111,20660 7121,20681 7131,20701 7144,20727 7155,20749 7168,20774 7180,20799 7191,20820 7202,20841 7213,20861 7226,20887 7239,20912 7253,20937 7263,20958 7274,20978 7288,21004 7299,21024 7310,21045 7324,21070 7338,21095 7351,21119 7363,21140 7374,21161 7386,21181 7400,21206 7414,21230 7426,21250 7440,21275 7451,21295 7463,21315 7477,21340 7492,21364 7504,21384 7519,21408 7533,21433 7542,21448 7557,21473 7572,21497 7584,21517 7597,21537 7612,21561 7627,21585 7639,21604 7654,21628 7667,21648 7680,21668 7695,21691 7710,21715 7723,21735 7736,21754 7751,21778 7767,21802 7780,21821 7793,21840 7809,21863 7825,21887 7837,21906 7853,21929 7867,21949 7880,21967 7899,21995 7912,22014 7925,22033 7939,22052 7956,22075 7972,22098 7985,22117 7999,22135 8015,22158 8032,22181 8046,22200 8063,22223 8076,22242 8090,22260 8107,22282 8124,22305 8138,22324 8153,22342 8170,22364 8187,22387 8201,22405 8219,22428 8236,22450 8247,22464 8265,22486 8282,22508 8297,22526 8314,22548 8329,22566 8344,22584 8361,22606 8379,22627 8394,22646 8412,22668 8430,22689 8441,22703 8460,22725 8478,22746 8493,22764 8511,22784 8526,22802 8545,22824 8563,22846 8575,22858 8593,22879 8612,22901 8628,22918 8646,22939 8662,22957 8681,22978 8699,22998 8715,23016 8731,23033 8746,23049 8769,23074 8784,23091 8800,23108 8820,23129 8836,23145 8854,23165 8874,23186 8891,23203 8906,23219 8926,23239 8946,23261 8962,23277 8977,23292 8998,23313 9018,23333 9033,23349 9054,23369 9073,23389 9086,23402 9107,23422 9127,23441 9143,23458 9164,23478 9180,23493 9196,23509 9217,23528 9238,23548 9258,23567 9275,23583 9292,23599 9312,23617 9329,23633 9350,23652 9371,23672 9388,23687 9405,23703 9426,23722 9447,23741 9464,23756 9481,23771 9503,23790 9524,23809 9541,23824 9558,23838 9581,23858 9602,23877 9618,23891 9640,23909 9658,23925 9675,23938 9696,23956 9720,23976 9740,23993 9758,24008 9776,24023 9797,24040 9816,24056 9839,24073 9859,24090 9878,24105 9896,24120 9918,24137 9939,24154 9957,24168 9978,24184 9999,24200 10021,24217 10040,24232 10061,24248 10080,24262 10098,24276 10121,24293 10144,24310 10167,24327 10186,24341 10203,24355 10226,24371 10246,24385 10269,24402 10292,24419 10309,24431 10328,24445 10352,24461 10375,24478 10395,24491 10418,24508 10435,24520 10455,24534 10479,24550 10500,24564 10526,24582 10546,24595 10564,24607 10587,24623 10605,24635 10629,24650 10655,24667 10673,24680 10693,24692 10717,24708 10739,24722 10759,24735 10783,24750 10804,24763 10824,24776 10849,24791 10871,24805 10895,24820 10915,24833 10936,24845 10960,24860 10983,24873 11003,24886 11024,24898 11047,24911 11071,24926 11092,24938 11117,24952 11142,24967 11157,24975 11181,24990 11206,25004 11214,25008 11997,23600 "/>
   <polygon class="fil2" points="27250,10844 29955,16050 28344,16075 28344,16100 28344,16129 28344,16158 28345,16198 28344,16226 28344,16255 28344,16288 28344,16316 28343,16347 28343,16380 28342,16413 28342,16444 28341,16473 28340,16506 28339,16539 28339,16568 28338,16599 28337,16627 28335,16660 28334,16693 28333,16722 28331,16755 28330,16785 28329,16814 28327,16847 28325,16882 28323,16908 28322,16937 28319,16972 28318,17000 28315,17036 28313,17069 28311,17095 28309,17125 28307,17154 28304,17187 28301,17222 28299,17250 28295,17283 28293,17311 28290,17340 28287,17373 28284,17408 28281,17436 28278,17464 28274,17497 28271,17525 28268,17560 28264,17593 28260,17621 28257,17650 28254,17678 28250,17711 28245,17744 28242,17774 28237,17807 28233,17835 28229,17865 28225,17896 28220,17928 28216,17958 28212,17986 28207,18019 28202,18052 28197,18082 28193,18110 28188,18141 28183,18170 28178,18203 28172,18236 28167,18266 28162,18292 28158,18319 28151,18354 28145,18386 28140,18414 28134,18449 28128,18477 28124,18503 28117,18537 28110,18570 28105,18597 28099,18625 28093,18657 28086,18691 28079,18719 28074,18747 28067,18779 28060,18812 28053,18840 28047,18867 28040,18899 28033,18928 28026,18961 28018,18993 28011,19021 28005,19048 27998,19076 27991,19108 27982,19142 27975,19169 27967,19201 27960,19229 27953,19256 27943,19293 27936,19320 27929,19348 27920,19381 27912,19408 27905,19434 27896,19467 27886,19501 27879,19527 27871,19554 27862,19587 27852,19618 27845,19645 27836,19673 27827,19705 27818,19732 27809,19764 27799,19796 27792,19818 27782,19851 27772,19883 27762,19913 27753,19941 27744,19968 27734,20000 27725,20027 27715,20058 27705,20085 27697,20112 27684,20149 27674,20176 27665,20202 27655,20233 27645,20260 27633,20292 27624,20318 27614,20345 27601,20381 27591,20408 27581,20435 27570,20465 27560,20492 27550,20519 27538,20550 27526,20581 27515,20608 27503,20639 27493,20665 27482,20692 27468,20727 27457,20754 27447,20780 27434,20810 27423,20837 27412,20863 27400,20894 27386,20925 27376,20951 27365,20976 27351,21008 27338,21038 27327,21065 27313,21096 27302,21121 27290,21147 27277,21177 27263,21208 27251,21234 27239,21260 27226,21290 27211,21320 27197,21351 27187,21371 27173,21402 27158,21432 27146,21458 27132,21488 27119,21513 27107,21539 27092,21569 27077,21599 27065,21624 27052,21650 27037,21680 27022,21709 27009,21734 26996,21760 26980,21790 26965,21820 26952,21844 26936,21874 26923,21899 26910,21924 26894,21954 26878,21984 26864,22008 26851,22033 26832,22067 26818,22092 26804,22117 26788,22146 26774,22171 26760,22195 26743,22225 26727,22254 26713,22279 26696,22307 26681,22332 26667,22356 26650,22385 26633,22414 26616,22443 26601,22467 26586,22492 26572,22516 26554,22545 26537,22573 26521,22598 26504,22626 26486,22655 26471,22679 26455,22703 26440,22727 26422,22755 26404,22783 26386,22812 26370,22836 26354,22860 26336,22887 26320,22911 26302,22939 26283,22967 26267,22991 26251,23015 26232,23042 26213,23070 26197,23094 26180,23117 26161,23145 26142,23172 26126,23196 26109,23219 26090,23246 26070,23274 26053,23298 26036,23321 26017,23347 25997,23375 25980,23398 25961,23424 25939,23454 25915,23485 25892,23515 25871,23543 25847,23575 25824,23605 25803,23632 25779,23663 25755,23694 25734,23721 25710,23751 25683,23785 25661,23812 25640,23838 25615,23869 25591,23899 25566,23929 25544,23956 25519,23985 25495,24015 25470,24044 25445,24074 25422,24100 25399,24126 25375,24156 25346,24188 25323,24214 25301,24239 25275,24268 25249,24298 25224,24326 25198,24355 25174,24381 25151,24406 25122,24437 25096,24465 25072,24491 25049,24516 25022,24544 24996,24572 24969,24600 24943,24628 24918,24653 24892,24680 24865,24708 24840,24733 24814,24759 24787,24786 24762,24811 24734,24839 24706,24866 24683,24889 24655,24917 24626,24944 24600,24970 24575,24993 24546,25020 24518,25047 24492,25071 24465,25097 24440,25120 24412,25146 24383,25172 24354,25198 24326,25224 24300,25246 24271,25273 24243,25298 24217,25321 24191,25343 24162,25368 24133,25394 24104,25419 24075,25443 24048,25467 24019,25491 23990,25515 23962,25538 23933,25562 23904,25586 23877,25608 23851,25630 23820,25655 23787,25681 23761,25702 23733,25724 23703,25748 23673,25771 23642,25796 23615,25816 23585,25839 23555,25862 23528,25883 23496,25907 23467,25928 23438,25951 23407,25973 23379,25993 23349,26016 23317,26039 23286,26061 23257,26082 23229,26102 23199,26124 23166,26146 23137,26167 23104,26190 23074,26210 23048,26228 23015,26251 22982,26273 22952,26293 22919,26315 22889,26334 22862,26352 22829,26374 22798,26394 22769,26413 22736,26434 22702,26456 22674,26474 22641,26494 22610,26513 22581,26532 22547,26553 22516,26571 22484,26591 22452,26610 22421,26629 22390,26647 22356,26667 22325,26685 22294,26703 22260,26723 22228,26741 22195,26760 22166,26776 22131,26796 22098,26814 22069,26831 22034,26850 22004,26866 21971,26884 21936,26903 21904,26920 21871,26938 21838,26955 21807,26971 21777,26987 21739,27007 21706,27023 21676,27039 21639,27057 21609,27072 21576,27088 21541,27106 21507,27122 21473,27139 21442,27153 21409,27169 21373,27186 21339,27202 21308,27216 21275,27232 21238,27249 21205,27264 21174,27278 21140,27293 21106,27308 21069,27325 21036,27339 21005,27353 20967,27369 20933,27383 20902,27396 20867,27411 20830,27426 20796,27440 20761,27454 20728,27468 20693,27482 20658,27495 20626,27508 20589,27522 20557,27535 20525,27547 20483,27564 20447,27576 20415,27588 20381,27601 20349,27613 20314,27625 20276,27639 20241,27651 20206,27664 20168,27677 20136,27688 20100,27700 20065,27712 20030,27724 19995,27735 19959,27747 19921,27759 19889,27770 19853,27781 19817,27792 19782,27803 19747,27814 19711,27825 19672,27837 19640,27846 19604,27857 19562,27869 19530,27878 19497,27888 19461,27898 19422,27909 19386,27918 19356,27927 19317,27937 19278,27947 19239,27958 19206,27966 19173,27975 19134,27984 19097,27993 19058,28003 19022,28011 18988,28019 18955,28027 18916,28036 18876,28045 18840,28053 18807,28061 18773,28068 18733,28077 18694,28085 18654,28093 18620,28100 18586,28107 18550,28114 18510,28122 18474,28129 18437,28136 18400,28143 18363,28150 18326,28156 18290,28163 18252,28169 18215,28176 18176,28182 18142,28188 18101,28194 18064,28200 18030,28205 17991,28211 17692,26209 17721,26205 17756,26199 17787,26194 17815,26190 17849,26184 17878,26180 17909,26174 17940,26169 17971,26163 18002,26158 18033,26152 18064,26146 18095,26140 18126,26134 18154,26129 18185,26123 18219,26116 18252,26109 18280,26103 18308,26098 18336,26091 18369,26084 18403,26077 18434,26070 18461,26064 18489,26057 18522,26049 18556,26041 18586,26034 18614,26027 18644,26020 18672,26013 18705,26004 18738,25996 18765,25989 18793,25982 18820,25974 18856,25964 18886,25956 18914,25948 18944,25940 18977,25931 19010,25921 19034,25914 19064,25905 19096,25896 19124,25888 19153,25878 19183,25870 19213,25860 19243,25851 19272,25841 19305,25831 19332,25822 19361,25812 19391,25803 19420,25793 19450,25783 19479,25773 19511,25762 19538,25753 19568,25742 19597,25732 19623,25723 19652,25712 19684,25700 19713,25689 19745,25677 19774,25667 19795,25659 19827,25647 19859,25634 19885,25624 19916,25612 19945,25600 19973,25589 20003,25577 20032,25565 20060,25554 20086,25543 20114,25531 20146,25518 20175,25506 20200,25495 20231,25481 20260,25469 20286,25458 20314,25445 20341,25433 20372,25419 20401,25406 20427,25394 20454,25381 20485,25367 20513,25354 20538,25342 20566,25328 20597,25313 20625,25300 20652,25287 20677,25275 20705,25261 20736,25245 20760,25233 20790,25218 20818,25204 20840,25192 20870,25177 20900,25161 20927,25147 20954,25133 20982,25118 21007,25105 21033,25090 21063,25074 21087,25060 21117,25044 21144,25029 21168,25015 21198,24998 21224,24983 21251,24968 21276,24954 21304,24937 21331,24921 21356,24907 21383,24890 21410,24874 21437,24858 21462,24843 21489,24826 21513,24811 21542,24793 21568,24777 21593,24761 21622,24743 21646,24728 21670,24713 21698,24695 21723,24678 21747,24662 21777,24643 21804,24625 21828,24609 21854,24592 21877,24576 21901,24560 21930,24539 21957,24522 21980,24505 22006,24487 22029,24471 22054,24453 22081,24434 22108,24415 22132,24398 22155,24381 22180,24363 22207,24343 22231,24325 22255,24307 22281,24288 22303,24271 22331,24250 22355,24232 22378,24213 22405,24193 22428,24175 22451,24157 22475,24138 22500,24118 22527,24097 22547,24081 22569,24063 22596,24041 22622,24020 22645,24000 22668,23981 22693,23961 22716,23941 22739,23922 22764,23901 22787,23881 22810,23862 22832,23843 22854,23823 22880,23800 22905,23778 22928,23758 22949,23739 22975,23716 22997,23696 23018,23677 23041,23656 23062,23636 23087,23613 23109,23592 23133,23570 23156,23550 23176,23529 23201,23506 23224,23484 23244,23464 23265,23444 23290,23419 23312,23398 23332,23378 23356,23355 23377,23333 23399,23311 23422,23287 23443,23266 23464,23244 23487,23220 23508,23199 23529,23177 23550,23155 23570,23133 23593,23109 23617,23084 23637,23062 23655,23042 23678,23017 23700,22992 23720,22970 23741,22948 23760,22926 23780,22903 23803,22877 23826,22851 23843,22832 23862,22809 23884,22783 23907,22757 23926,22734 23946,22711 23965,22688 23984,22665 24006,22639 24025,22615 24044,22592 24063,22569 24085,22541 24107,22515 24123,22495 24141,22471 24163,22444 24181,22420 24200,22396 24221,22369 24240,22344 24257,22321 24278,22293 24297,22269 24315,22245 24334,22219 24349,22199 24366,22176 24380,22157 24394,22137 24410,22114 24427,22091 24441,22072 24455,22053 24471,22029 24487,22006 24501,21986 24514,21967 24530,21944 24547,21920 24560,21901 24573,21881 24589,21858 24605,21834 24618,21815 24631,21795 24647,21771 24660,21752 24676,21728 24691,21704 24704,21684 24717,21665 24729,21645 24744,21621 24760,21597 24775,21573 24787,21553 24799,21533 24815,21509 24827,21489 24839,21469 24854,21444 24868,21420 24883,21396 24895,21376 24907,21355 24919,21335 24933,21311 24948,21286 24959,21266 24973,21242 24985,21222 24997,21201 25011,21176 25025,21152 25036,21131 25050,21106 25064,21082 25073,21066 25086,21041 25100,21016 25111,20995 25122,20975 25135,20950 25148,20925 25159,20904 25172,20879 25183,20858 25194,20838 25206,20813 25219,20787 25230,20766 25241,20746 25253,20720 25266,20695 25276,20674 25286,20653 25299,20628 25311,20602 25321,20582 25333,20556 25344,20535 25353,20514 25367,20484 25378,20463 25387,20442 25397,20421 25409,20395 25420,20369 25430,20348 25439,20327 25451,20301 25462,20275 25472,20254 25483,20228 25492,20207 25501,20186 25512,20160 25523,20134 25532,20112 25541,20091 25552,20064 25563,20039 25571,20017 25582,19990 25593,19965 25599,19948 25610,19922 25620,19896 25629,19874 25639,19848 25647,19826 25656,19804 25665,19778 25675,19752 25684,19730 25693,19703 25703,19677 25710,19660 25719,19634 25729,19607 25736,19585 25745,19559 25753,19538 25762,19510 25772,19483 25777,19467 25786,19440 25795,19413 25803,19391 25812,19364 25819,19342 25827,19315 25836,19290 25843,19266 25851,19244 25857,19223 25867,19191 25874,19169 25881,19147 25889,19120 25896,19097 25903,19071 25911,19044 25918,19021 25924,19000 25932,18972 25940,18944 25946,18923 25952,18902 25960,18873 25967,18845 25973,18824 25980,18797 25988,18770 25992,18752 25999,18725 26006,18697 26012,18675 26019,18647 26024,18626 26030,18603 26037,18576 26043,18548 26050,18521 26055,18498 26060,18475 26066,18449 26071,18426 26077,18398 26084,18371 26089,18348 26094,18325 26099,18298 26106,18270 26110,18248 26115,18226 26120,18198 26126,18170 26131,18147 26135,18126 26140,18096 26146,18068 26150,18047 26155,18019 26159,17996 26163,17974 26167,17947 26173,17917 26177,17891 26181,17868 26185,17844 26189,17818 26193,17793 26198,17765 26202,17739 26205,17715 26209,17692 26213,17664 26217,17638 26220,17615 26224,17589 26227,17563 26231,17535 26234,17511 26238,17485 26241,17462 26243,17438 26247,17410 26250,17382 26254,17354 26256,17330 26259,17308 26262,17280 26264,17257 26267,17228 26270,17200 26272,17178 26275,17155 26277,17126 26280,17098 26282,17074 26284,17046 26286,17024 26288,17001 26290,16972 26292,16946 26294,16916 26296,16892 26298,16870 26299,16842 26301,16820 26302,16792 26304,16761 26305,16739 26307,16715 26308,16687 26309,16661 26310,16637 26312,16608 26312,16584 26313,16560 26314,16532 26315,16505 26316,16477 26317,16453 26317,16429 26318,16400 26318,16374 26319,16350 26319,16326 26319,16300 26320,16271 26320,16247 26320,16218 26320,16190 26320,16172 26320,16144 26320,16115 26319,16107 24709,16132 "/>
  </g>
 </g>
</svg>
