<?xml version="1.0" encoding="UTF-8"?>
<!DOCTYPE svg PUBLIC "-//W3C//DTD SVG 1.1//EN" "http://www.w3.org/Graphics/SVG/1.1/DTD/svg11.dtd">
<!-- Creator: CorelDRAW X7 -->
<svg xmlns="http://www.w3.org/2000/svg" xml:space="preserve" width="21.863mm" height="21.8628mm" version="1.1" style="shape-rendering:geometricPrecision; text-rendering:geometricPrecision; image-rendering:optimizeQuality; fill-rule:evenodd; clip-rule:evenodd"
viewBox="0 0 31432 31432"
 xmlns:xlink="http://www.w3.org/1999/xlink">
 <defs>
  <style type="text/css">
   <![CDATA[
    .fil0 {fill:none}
    .fil1 {fill:#D7D7D7}
    .fil2 {fill:#D7D7D7;fill-rule:nonzero}
   ]]>
  </style>
 </defs>
 <g id="圖層_x0020_1">
  <metadata id="CorelCorpID_0Corel-Layer"/>
  <g id="_1224462240">
   <rect class="fil0" width="31432" height="31432"/>
   <rect class="fil0" width="31432" height="31432"/>
   <polygon class="fil1" points="16391,14815 19092,7612 10089,17516 15491,17516 11889,23819 21343,14815 "/>
   <polygon class="fil2" points="5856,9025 8918,4226 9721,5568 9742,5555 9766,5541 9790,5527 9823,5508 9848,5494 9872,5480 9899,5464 9923,5451 9950,5436 9978,5420 10006,5405 10032,5390 10056,5377 10084,5361 10113,5346 10137,5333 10164,5319 10188,5306 10216,5291 10245,5276 10269,5263 10298,5248 10324,5235 10349,5222 10377,5207 10408,5192 10431,5181 10455,5168 10486,5153 10511,5141 10542,5125 10571,5111 10594,5101 10620,5088 10645,5075 10674,5062 10705,5047 10730,5035 10759,5022 10784,5011 10810,4999 10839,4986 10870,4971 10895,4960 10920,4949 10950,4936 10975,4925 11006,4911 11035,4898 11061,4888 11086,4877 11111,4866 11141,4853 11171,4841 11198,4829 11227,4817 11253,4807 11280,4795 11309,4784 11338,4772 11365,4761 11391,4751 11421,4739 11451,4728 11478,4717 11504,4707 11532,4697 11560,4686 11590,4675 11620,4664 11647,4654 11672,4645 11697,4635 11729,4624 11759,4613 11785,4604 11817,4592 11843,4583 11868,4575 11900,4564 11930,4553 11956,4545 11982,4536 12013,4526 12045,4515 12071,4507 12097,4498 12128,4488 12158,4479 12185,4470 12211,4462 12242,4453 12269,4444 12300,4435 12331,4426 12357,4418 12383,4410 12410,4402 12441,4393 12473,4384 12500,4376 12531,4367 12557,4360 12583,4353 12619,4343 12646,4336 12672,4329 12705,4320 12731,4313 12756,4307 12789,4298 12821,4290 12847,4284 12873,4277 12906,4269 12936,4262 12963,4255 12990,4249 13022,4241 13049,4235 13080,4227 13112,4220 13134,4215 13166,4208 13198,4201 13228,4194 13256,4188 13283,4183 13315,4176 13342,4171 13373,4164 13400,4159 13427,4153 13464,4146 13491,4141 13518,4136 13549,4130 13577,4125 13609,4119 13636,4114 13663,4109 13699,4102 13727,4098 13754,4093 13786,4088 13813,4084 13841,4079 13873,4074 13904,4069 13932,4065 13964,4060 13991,4056 14018,4052 14055,4047 14083,4043 14109,4039 14141,4034 14169,4031 14196,4027 14229,4023 14261,4019 14287,4016 14314,4012 14347,4009 14380,4005 14407,4002 14440,3998 14466,3995 14494,3992 14526,3989 14558,3986 14586,3983 14613,3981 14645,3977 14678,3975 14710,3972 14732,3970 14765,3967 14798,3965 14825,3963 14857,3960 14885,3958 14912,3956 14945,3954 14977,3952 15005,3950 15032,3949 15064,3947 15097,3945 15124,3944 15152,3942 15185,3941 15217,3939 15244,3938 15277,3937 15304,3936 15332,3935 15364,3934 15397,3933 15424,3932 15452,3932 15490,3931 15517,3931 15545,3930 15577,3930 15605,3929 15632,3929 15665,3929 15697,3929 15725,3929 15758,3929 15785,3929 15813,3929 15845,3929 15877,3930 15910,3930 15938,3931 15965,3931 15993,3932 16026,3933 16058,3934 16086,3935 16119,3936 16151,3937 16179,3938 16206,3939 16234,3940 16267,3941 16299,3943 16332,3945 16360,3946 16387,3948 16419,3950 16447,3951 16480,3953 16512,3956 16540,3958 16568,3960 16600,3962 16632,3965 16660,3967 16688,3969 16721,3972 16753,3975 16781,3977 16808,3980 16840,3982 16873,3986 16901,3989 16929,3991 16961,3995 16994,3998 17022,4001 17052,4005 17088,4009 17126,4013 17162,4018 17196,4022 17234,4027 17271,4032 17304,4036 17341,4041 17379,4047 17412,4051 17449,4057 17491,4063 17524,4069 17556,4073 17594,4079 17631,4085 17668,4092 17701,4097 17738,4104 17775,4110 17812,4117 17849,4123 17882,4129 17915,4136 17952,4143 17992,4151 18026,4157 18058,4164 18094,4171 18132,4179 18168,4187 18205,4194 18238,4202 18270,4209 18311,4218 18347,4226 18379,4234 18413,4241 18449,4250 18485,4259 18522,4267 18558,4276 18591,4285 18627,4294 18663,4303 18696,4312 18731,4321 18767,4330 18800,4339 18837,4349 18872,4359 18904,4368 18940,4378 18977,4389 19011,4399 19044,4408 19080,4419 19116,4430 19149,4440 19184,4450 19215,4460 19251,4471 19286,4482 19323,4494 19358,4506 19389,4516 19426,4528 19461,4539 19492,4550 19523,4561 19558,4573 19595,4585 19629,4597 19664,4610 19697,4621 19731,4634 19766,4646 19798,4658 19833,4671 19867,4684 19898,4696 19929,4708 19965,4721 20003,4736 20034,4748 20066,4761 20100,4775 20134,4788 20170,4803 20200,4815 20235,4829 20268,4844 20299,4856 20334,4871 20366,4885 20400,4899 20434,4914 20464,4927 20497,4942 20533,4958 20566,4973 20598,4987 20628,5001 20661,5016 20696,5032 20728,5047 20763,5064 20794,5079 20822,5092 20857,5109 20891,5126 20922,5141 20957,5158 20988,5174 21016,5188 21050,5205 21083,5222 21112,5237 21147,5254 21181,5272 21210,5287 21242,5305 21274,5322 21304,5338 21338,5356 21368,5373 21400,5390 21432,5408 21463,5425 21493,5442 21527,5461 21557,5478 21587,5495 21620,5514 21651,5532 21682,5550 21711,5567 21744,5587 21775,5606 21803,5623 21837,5642 21865,5660 21895,5679 21929,5699 21958,5718 21989,5737 22020,5756 22048,5774 22076,5792 22111,5814 22141,5834 22168,5852 22202,5874 22229,5892 22259,5911 22291,5933 22321,5953 22351,5974 22378,5992 22408,6012 22439,6034 22469,6055 22496,6074 22526,6095 22558,6118 22586,6138 22613,6157 22643,6179 22672,6200 22703,6223 22732,6244 22758,6264 22790,6288 22818,6309 22844,6329 22874,6351 22904,6374 22933,6397 22961,6419 22989,6440 23018,6463 23046,6486 23072,6506 23103,6530 23128,6551 23154,6572 23189,6600 23216,6623 23242,6644 23269,6667 23295,6688 23323,6712 23352,6737 23380,6760 23407,6784 23437,6809 23461,6831 23489,6855 23515,6879 23543,6902 23570,6926 23596,6950 23625,6977 23650,6999 23677,7023 23703,7048 23730,7072 23756,7097 23783,7121 23811,7148 23835,7171 23862,7196 23892,7225 23915,7248 23939,7271 23965,7296 23993,7324 24019,7349 24040,7371 24068,7398 24095,7426 24123,7454 24146,7478 24169,7501 24197,7529 24222,7555 24249,7584 24274,7610 24296,7635 24319,7659 24346,7687 24372,7716 24397,7742 24419,7767 24442,7792 24469,7821 24495,7850 24521,7879 24543,7904 24565,7929 24589,7957 24615,7986 24638,8014 24662,8041 24686,8069 24710,8096 24733,8124 24756,8152 24779,8180 24803,8208 24827,8238 24849,8264 24874,8295 24897,8323 24918,8349 24942,8379 23404,9602 23386,9579 23365,9553 23346,9529 23329,9508 23307,9482 23289,9460 23270,9437 23250,9413 23230,9390 23211,9366 23191,9343 23171,9320 23151,9296 23131,9273 23113,9253 23093,9230 23071,9205 23049,9180 23030,9159 23012,9138 22993,9118 22971,9093 22948,9069 22927,9046 22909,9026 22890,9006 22867,8982 22844,8957 22823,8935 22804,8915 22783,8894 22764,8874 22741,8850 22717,8826 22698,8807 22679,8787 22659,8768 22634,8742 22612,8721 22592,8702 22571,8681 22547,8658 22523,8634 22506,8617 22484,8596 22460,8574 22440,8555 22418,8535 22396,8514 22373,8493 22351,8473 22329,8452 22304,8430 22284,8412 22261,8392 22239,8371 22216,8352 22194,8332 22171,8312 22146,8290 22125,8272 22102,8252 22079,8233 22058,8215 22036,8196 22010,8175 21987,8156 21961,8134 21938,8115 21922,8101 21896,8081 21870,8060 21849,8043 21823,8022 21800,8004 21776,7986 21752,7967 21728,7948 21705,7930 21683,7913 21659,7895 21633,7875 21609,7857 21588,7841 21561,7822 21537,7803 21515,7787 21490,7770 21466,7752 21440,7733 21415,7715 21393,7699 21368,7682 21341,7664 21317,7647 21295,7631 21270,7614 21242,7595 21218,7579 21194,7562 21171,7547 21145,7530 21118,7512 21096,7498 21068,7480 21043,7463 21023,7450 20995,7432 20967,7415 20942,7399 20917,7383 20891,7367 20868,7352 20843,7338 20815,7320 20792,7306 20763,7289 20738,7274 20714,7260 20686,7243 20661,7229 20634,7213 20611,7199 20583,7184 20557,7168 20533,7155 20505,7140 20478,7125 20452,7110 20427,7097 20400,7082 20376,7069 20347,7053 20321,7039 20295,7026 20266,7011 20242,6998 20217,6985 20188,6970 20162,6957 20137,6945 20106,6929 20079,6915 20054,6903 20026,6889 20001,6877 19977,6865 19945,6851 19917,6837 19892,6825 19864,6812 19840,6800 19813,6788 19783,6775 19755,6762 19728,6750 19703,6739 19676,6727 19646,6714 19619,6702 19592,6690 19564,6678 19538,6667 19508,6654 19481,6643 19454,6632 19423,6620 19398,6609 19371,6598 19344,6587 19315,6576 19284,6564 19260,6555 19234,6545 19203,6533 19173,6521 19145,6511 19118,6501 19088,6490 19061,6480 19033,6470 19004,6460 18976,6450 18949,6440 18923,6431 18895,6422 18863,6411 18832,6401 18805,6391 18778,6382 18747,6372 18719,6363 18692,6355 18664,6346 18637,6337 18605,6328 18577,6319 18547,6310 18519,6301 18492,6294 18460,6284 18431,6275 18404,6268 18377,6260 18344,6251 18316,6243 18289,6236 18258,6228 18229,6220 18200,6212 18169,6204 18141,6197 18113,6190 18081,6182 18053,6175 18024,6168 17996,6161 17967,6155 17936,6147 17904,6140 17875,6133 17851,6128 17818,6121 17786,6114 17758,6108 17729,6102 17701,6096 17672,6090 17639,6083 17607,6077 17582,6072 17554,6066 17521,6061 17489,6055 17460,6049 17431,6044 17402,6039 17373,6034 17341,6028 17312,6024 17283,6019 17254,6014 17221,6009 17188,6004 17163,6000 17134,5996 17101,5991 17072,5987 17043,5983 17010,5979 16980,5975 16952,5971 16919,5967 16889,5963 16860,5960 16829,5956 16805,5954 16777,5951 16755,5948 16731,5946 16704,5943 16677,5940 16654,5938 16631,5936 16603,5933 16576,5931 16552,5929 16530,5927 16503,5925 16475,5923 16452,5921 16429,5919 16402,5917 16374,5915 16351,5914 16329,5912 16301,5910 16278,5909 16250,5908 16223,5906 16200,5905 16177,5904 16155,5903 16127,5902 16099,5901 16072,5900 16049,5899 16027,5898 15999,5897 15976,5896 15954,5896 15926,5896 15898,5895 15871,5894 15848,5894 15825,5893 15803,5893 15775,5893 15748,5893 15725,5893 15697,5893 15675,5893 15652,5893 15625,5893 15597,5894 15574,5894 15547,5895 15519,5895 15502,5895 15474,5896 15446,5897 15424,5897 15401,5898 15374,5899 15346,5900 15324,5901 15297,5902 15274,5903 15251,5904 15224,5906 15196,5907 15174,5908 15151,5909 15124,5911 15096,5913 15074,5914 15051,5916 15024,5918 14997,5920 14974,5921 14947,5923 14924,5925 14902,5927 14870,5930 14847,5931 14825,5934 14802,5936 14775,5938 14748,5941 14725,5943 14703,5945 14676,5948 14648,5951 14625,5954 14598,5957 14576,5959 14554,5962 14528,5965 14500,5969 14477,5972 14455,5975 14427,5978 14401,5982 14379,5985 14351,5989 14324,5992 14307,5995 14280,5999 14253,6003 14230,6006 14204,6010 14181,6014 14158,6017 14132,6022 14105,6026 14083,6030 14055,6035 14029,6039 14012,6042 13984,6047 13957,6052 13935,6056 13909,6061 13887,6065 13860,6070 13833,6075 13816,6079 13789,6084 13762,6090 13740,6094 13713,6100 13691,6104 13664,6110 13639,6115 13616,6121 13593,6125 13572,6130 13541,6137 13519,6142 13497,6147 13470,6153 13448,6159 13423,6165 13396,6171 13373,6177 13352,6182 13326,6189 13298,6196 13277,6201 13256,6206 13229,6214 13202,6221 13181,6226 13155,6233 13128,6240 13111,6245 13085,6252 13058,6260 13036,6266 13010,6273 12990,6279 12968,6286 12941,6293 12915,6301 12889,6309 12867,6315 12845,6322 12821,6330 12799,6337 12773,6345 12747,6353 12725,6360 12704,6367 12677,6375 12651,6384 12631,6390 12609,6398 12583,6406 12557,6415 12536,6422 12516,6429 12488,6439 12462,6448 12442,6455 12416,6464 12395,6472 12375,6479 12349,6489 12322,6499 12298,6508 12276,6515 12255,6523 12231,6533 12208,6541 12182,6551 12158,6560 12136,6569 12115,6577 12090,6587 12066,6597 12045,6605 12022,6615 11998,6624 11973,6635 11951,6644 11927,6653 11906,6662 11885,6671 11860,6682 11835,6693 11809,6704 11788,6713 11769,6721 11744,6732 11723,6742 11697,6753 11672,6764 11653,6773 11632,6783 11607,6794 11582,6806 11561,6816 11536,6827 11517,6836 11496,6846 11471,6858 11448,6869 11422,6882 11400,6892 11381,6901 11357,6914 11338,6923 11314,6936 11287,6949 11268,6958 11247,6969 11222,6982 11200,6993 11179,7004 11155,7017 11134,7028 11114,7039 11089,7052 11067,7064 11042,7077 11022,7088 11001,7099 10977,7113 10955,7125 10934,7136 10914,7148 10892,7160 10868,7173 10847,7185 10823,7199 10799,7213 10784,7221 10760,7235 10737,7249 10730,7253 11532,8595 "/>
   <polygon class="fil2" points="14852,27600 9165,27348 9925,25982 9904,25970 9880,25956 9855,25942 9822,25923 9798,25909 9774,25895 9747,25879 9723,25865 9697,25849 9669,25833 9642,25817 9616,25801 9592,25787 9565,25770 9537,25753 9514,25739 9488,25723 9465,25708 9438,25691 9411,25674 9387,25659 9360,25642 9335,25626 9312,25611 9285,25593 9256,25575 9235,25560 9212,25545 9183,25526 9160,25511 9132,25492 9105,25474 9084,25460 9060,25443 9037,25427 9010,25409 8982,25390 8960,25374 8933,25355 8911,25339 8888,25323 8862,25305 8834,25285 8812,25269 8790,25253 8764,25234 8742,25217 8714,25197 8688,25178 8666,25161 8644,25145 8622,25128 8596,25109 8571,25090 8547,25072 8522,25052 8500,25035 8477,25017 8453,24998 8428,24979 8405,24961 8383,24944 8358,24924 8333,24904 8310,24885 8289,24868 8265,24848 8243,24830 8218,24810 8193,24789 8170,24770 8151,24754 8130,24736 8104,24715 8079,24694 8058,24676 8032,24654 8012,24636 7992,24619 7967,24597 7942,24575 7922,24557 7901,24539 7877,24518 7852,24495 7832,24477 7811,24459 7787,24437 7763,24415 7743,24397 7723,24378 7699,24356 7678,24337 7655,24315 7631,24292 7611,24273 7591,24255 7571,24236 7548,24214 7524,24190 7504,24171 7481,24149 7461,24129 7442,24110 7415,24084 7396,24065 7377,24045 7353,24022 7333,24002 7316,23983 7292,23960 7268,23936 7250,23917 7231,23897 7208,23873 7186,23850 7168,23830 7148,23810 7126,23786 7107,23766 7085,23743 7063,23719 7048,23702 7025,23678 7003,23654 6982,23631 6963,23610 6945,23589 6923,23565 6905,23545 6883,23521 6865,23500 6847,23480 6822,23451 6804,23430 6787,23410 6766,23386 6747,23364 6726,23339 6709,23318 6691,23297 6667,23269 6649,23247 6631,23226 6611,23201 6594,23180 6576,23158 6556,23133 6536,23109 6518,23087 6498,23061 6481,23040 6464,23018 6441,22989 6424,22967 6407,22946 6387,22920 6370,22898 6353,22876 6334,22850 6314,22824 6298,22803 6282,22781 6262,22755 6242,22728 6226,22706 6206,22680 6191,22658 6175,22636 6155,22610 6136,22583 6121,22561 6104,22538 6086,22512 6067,22485 6048,22459 6036,22440 6017,22414 5999,22387 5983,22364 5965,22337 5949,22315 5934,22292 5916,22265 5898,22237 5883,22215 5868,22192 5850,22164 5832,22137 5817,22114 5802,22091 5784,22064 5767,22036 5752,22013 5735,21986 5721,21962 5706,21939 5689,21911 5672,21883 5657,21860 5643,21836 5623,21804 5609,21780 5595,21757 5579,21729 5565,21705 5551,21682 5534,21654 5518,21625 5504,21601 5488,21573 5474,21549 5460,21525 5444,21497 5428,21469 5412,21440 5399,21416 5386,21392 5372,21368 5357,21339 5342,21311 5328,21286 5313,21257 5298,21229 5285,21204 5272,21180 5259,21155 5244,21126 5229,21097 5214,21068 5202,21043 5189,21019 5175,20990 5162,20965 5148,20935 5134,20906 5121,20881 5109,20856 5095,20827 5081,20798 5069,20773 5057,20747 5043,20718 5030,20689 5018,20663 5006,20638 4993,20609 4979,20579 4967,20553 4956,20528 4943,20498 4930,20468 4918,20442 4906,20414 4892,20381 4877,20346 4862,20312 4849,20281 4834,20245 4820,20211 4807,20180 4793,20145 4779,20110 4766,20079 4753,20044 4737,20005 4725,19974 4713,19943 4700,19908 4686,19873 4673,19837 4661,19806 4648,19771 4636,19736 4623,19700 4610,19665 4599,19633 4588,19601 4576,19566 4562,19527 4551,19494 4541,19464 4529,19428 4517,19392 4505,19357 4494,19321 4484,19289 4474,19257 4461,19218 4450,19182 4441,19150 4431,19117 4420,19082 4409,19046 4399,19010 4389,18974 4379,18942 4369,18906 4359,18870 4350,18837 4340,18802 4331,18766 4322,18733 4312,18696 4303,18660 4295,18629 4285,18592 4276,18555 4267,18520 4260,18488 4251,18451 4242,18415 4234,18381 4226,18345 4219,18313 4211,18277 4203,18241 4194,18203 4187,18167 4180,18135 4172,18097 4165,18061 4158,18028 4152,17996 4145,17960 4138,17922 4130,17886 4124,17850 4118,17815 4111,17779 4105,17743 4099,17709 4093,17673 4087,17636 4082,17604 4076,17571 4070,17533 4064,17493 4059,17460 4054,17426 4049,17390 4043,17353 4038,17315 4034,17282 4029,17246 4024,17209 4020,17176 4015,17138 4011,17104 4007,17068 4003,17031 3999,16998 3995,16962 3991,16923 3988,16887 3984,16852 3981,16820 3977,16783 3974,16745 3971,16710 3968,16671 3965,16637 3963,16606 3960,16567 3957,16529 3955,16494 3952,16455 3950,16421 3949,16390 3946,16352 3945,16315 3943,16282 3941,16244 3939,16205 3938,16172 3937,16135 3936,16099 3935,16066 3933,16027 3933,15992 3931,15956 3931,15919 3930,15885 3930,15850 3930,15811 3929,15776 3929,15742 3929,15703 3929,15668 3930,15632 3930,15598 3930,15560 3931,15524 3931,15490 3932,15452 3933,15419 3934,15383 3935,15344 3936,15309 3938,15273 3939,15236 3940,15203 3942,15170 3944,15128 3946,15093 3947,15060 3950,15020 3952,14987 3954,14952 3957,14913 3959,14877 3962,14841 3964,14808 3967,14772 3970,14734 3973,14698 3976,14665 3980,14629 3983,14590 3987,14555 3990,14522 3993,14486 3997,14450 4002,14411 4006,14376 4009,14343 4014,14304 4018,14268 4022,14236 4027,14200 4032,14161 4037,14125 4042,14090 4047,14055 4052,14019 4057,13983 4062,13950 4068,13912 4073,13879 4078,13846 4085,13802 4091,13767 4097,13734 4103,13699 4109,13666 4115,13630 4122,13592 4129,13557 4135,13521 4143,13483 4149,13450 4156,13415 4163,13380 4170,13344 4177,13309 4185,13274 4193,13236 4200,13203 4208,13168 4216,13132 4224,13097 4232,13062 4240,13027 4249,12989 4257,12957 4265,12921 4275,12881 4283,12849 4291,12817 4300,12782 4310,12743 4319,12709 4327,12679 4337,12642 4347,12604 4357,12566 4367,12534 4375,12502 4386,12465 4396,12430 4407,12392 4418,12357 4427,12325 4437,12294 4448,12256 4460,12219 4470,12185 4481,12153 4491,12121 4503,12083 4515,12046 4527,12009 4538,11977 4548,11945 4560,11911 4573,11874 4585,11840 4596,11806 4609,11771 4621,11737 4633,11703 4646,11669 4658,11634 4671,11600 4684,11564 4696,11532 4711,11495 4724,11462 4736,11430 4750,11395 6577,12115 6567,12141 6555,12173 6543,12201 6534,12227 6522,12259 6512,12285 6501,12313 6491,12342 6481,12371 6470,12400 6460,12428 6449,12457 6439,12487 6429,12516 6420,12541 6411,12570 6400,12602 6389,12634 6381,12660 6372,12686 6364,12712 6354,12744 6344,12776 6334,12805 6326,12832 6318,12858 6309,12890 6299,12922 6290,12951 6283,12977 6274,13006 6267,13033 6258,13065 6249,13097 6242,13123 6234,13150 6227,13177 6218,13212 6210,13241 6204,13268 6196,13297 6188,13329 6180,13361 6174,13385 6167,13414 6159,13447 6153,13473 6146,13503 6139,13532 6132,13562 6126,13591 6120,13621 6112,13653 6107,13680 6101,13710 6094,13739 6088,13768 6082,13798 6077,13828 6070,13860 6065,13887 6059,13917 6054,13946 6049,13973 6044,14003 6038,14035 6033,14065 6028,14098 6023,14127 6019,14149 6014,14181 6009,14214 6005,14241 6000,14273 5996,14303 5992,14332 5987,14363 5983,14393 5979,14422 5975,14449 5972,14479 5968,14511 5964,14542 5961,14568 5957,14601 5953,14631 5950,14658 5947,14688 5944,14717 5941,14750 5938,14781 5935,14808 5933,14837 5930,14870 5927,14900 5925,14926 5923,14957 5920,14990 5918,15020 5916,15049 5914,15076 5912,15106 5910,15140 5909,15166 5907,15198 5905,15229 5904,15253 5903,15286 5902,15319 5901,15348 5899,15378 5898,15408 5897,15436 5897,15465 5896,15498 5895,15525 5895,15558 5894,15587 5894,15615 5894,15648 5893,15677 5894,15708 5893,15735 5894,15767 5894,15797 5894,15825 5895,15856 5895,15887 5896,15916 5896,15945 5897,15976 5898,16004 5899,16037 5900,16066 5901,16095 5902,16128 5903,16155 5905,16183 5906,16216 5908,16245 5909,16272 5912,16307 5913,16338 5915,16366 5917,16397 5919,16424 5921,16451 5924,16486 5926,16517 5929,16544 5931,16575 5933,16602 5936,16631 5940,16664 5942,16695 5945,16724 5948,16752 5951,16781 5955,16814 5958,16843 5962,16871 5966,16902 5969,16930 5973,16963 5977,16992 5981,17021 5985,17053 5989,17081 5993,17109 5997,17138 6002,17169 6006,17202 6010,17227 6015,17254 6020,17287 6025,17319 6030,17348 6035,17377 6040,17408 6045,17437 6050,17465 6056,17497 6062,17525 6067,17554 6072,17581 6078,17610 6084,17642 6091,17675 6096,17703 6102,17731 6109,17763 6115,17791 6121,17819 6128,17847 6134,17875 6141,17908 6148,17936 6155,17967 6161,17996 6169,18023 6176,18055 6183,18085 6190,18112 6197,18139 6205,18172 6213,18201 6220,18228 6228,18258 6236,18287 6244,18316 6252,18347 6260,18375 6268,18403 6277,18434 6285,18463 6293,18491 6302,18519 6310,18546 6319,18577 6329,18609 6338,18637 6345,18661 6355,18693 6365,18724 6374,18752 6383,18779 6392,18806 6402,18835 6413,18867 6423,18897 6431,18921 6441,18949 6452,18980 6463,19011 6472,19039 6483,19067 6492,19094 6503,19121 6514,19152 6524,19180 6535,19207 6545,19234 6558,19266 6569,19297 6579,19320 6589,19347 6602,19379 6613,19406 6624,19433 6637,19464 6648,19491 6659,19518 6672,19549 6684,19576 6696,19603 6708,19631 6718,19654 6729,19679 6738,19700 6747,19721 6759,19747 6770,19772 6780,19792 6789,19814 6801,19838 6812,19864 6822,19885 6832,19905 6844,19930 6855,19955 6865,19976 6875,19996 6887,20021 6900,20046 6910,20067 6920,20087 6932,20112 6942,20132 6955,20157 6967,20181 6978,20202 6988,20222 6999,20242 7011,20266 7024,20291 7037,20316 7048,20336 7058,20355 7072,20380 7082,20400 7093,20420 7106,20444 7120,20468 7133,20492 7144,20512 7155,20532 7166,20552 7180,20576 7194,20600 7205,20619 7219,20643 7230,20663 7241,20682 7255,20706 7270,20730 7281,20749 7295,20773 7309,20797 7318,20812 7333,20835 7347,20859 7359,20878 7371,20897 7386,20920 7400,20944 7412,20963 7427,20986 7439,21005 7452,21024 7466,21047 7481,21070 7493,21089 7506,21108 7521,21131 7536,21154 7549,21173 7561,21191 7577,21214 7592,21237 7605,21256 7620,21278 7633,21297 7646,21315 7664,21342 7677,21361 7690,21378 7703,21397 7719,21420 7735,21442 7748,21460 7761,21478 7777,21500 7794,21523 7807,21541 7823,21563 7837,21581 7850,21599 7866,21620 7883,21643 7897,21661 7911,21679 7927,21700 7944,21722 7957,21740 7975,21762 7991,21783 8002,21797 8019,21818 8036,21840 8050,21858 8067,21878 8082,21896 8096,21914 8113,21934 8130,21955 8145,21973 8162,21995 8179,22015 8191,22029 8208,22050 8226,22071 8241,22088 8258,22108 8272,22125 8291,22146 8309,22167 8320,22180 8338,22200 8356,22221 8371,22238 8390,22258 8405,22275 8423,22295 8441,22315 8457,22332 8472,22349 8486,22365 8508,22389 8523,22405 8539,22422 8558,22442 8573,22458 8591,22477 8610,22497 8627,22514 8641,22530 8661,22549 8680,22570 8696,22585 8710,22601 8731,22621 8750,22641 8765,22656 8785,22675 8804,22695 8816,22707 8836,22726 8856,22745 8872,22761 8892,22780 8907,22795 8923,22811 8943,22830 8963,22849 8983,22868 8999,22883 9016,22899 9035,22916 9052,22932 9072,22950 9092,22969 9109,22984 9126,22999 9146,23018 9167,23036 9183,23050 9200,23065 9220,23084 9241,23102 9258,23117 9274,23130 9296,23149 9317,23168 9333,23181 9354,23199 9371,23214 9387,23228 9408,23245 9431,23264 9451,23280 9468,23295 9486,23310 9506,23326 9525,23341 9546,23359 9566,23375 9584,23389 9602,23403 9624,23420 9644,23437 9662,23450 9682,23466 9702,23481 9723,23498 9742,23512 9762,23528 9780,23542 9799,23555 9821,23572 9843,23589 9865,23605 9883,23619 9900,23631 9922,23648 9941,23661 9964,23677 9986,23693 10003,23706 10022,23719 10044,23735 10067,23751 10086,23764 10109,23780 10126,23792 10145,23805 10168,23821 10189,23835 10213,23852 10233,23865 10250,23877 10273,23892 10291,23904 10314,23918 10338,23935 10356,23947 10375,23959 10399,23974 10420,23988 10440,24001 10463,24015 10483,24028 10503,24040 10526,24055 10548,24068 10571,24083 10591,24095 10611,24107 10635,24122 10657,24135 10677,24147 10697,24159 10719,24172 10742,24186 10763,24198 10787,24211 10811,24226 10825,24234 10849,24248 10874,24261 10881,24265 11641,22899 "/>
   <polygon class="fil2" points="26440,10522 29066,15573 27502,15598 27502,15622 27502,15650 27503,15678 27503,15717 27503,15744 27503,15772 27502,15804 27502,15831 27502,15862 27501,15894 27501,15926 27500,15956 27500,15984 27499,16016 27498,16048 27497,16076 27496,16106 27495,16133 27494,16165 27493,16197 27492,16225 27490,16257 27489,16287 27488,16315 27486,16346 27484,16381 27482,16406 27481,16434 27479,16468 27477,16496 27475,16530 27472,16562 27470,16587 27468,16617 27466,16644 27463,16676 27461,16710 27458,16738 27455,16770 27453,16797 27450,16825 27447,16857 27444,16891 27441,16918 27438,16946 27435,16978 27432,17005 27428,17039 27424,17071 27421,17098 27418,17126 27415,17153 27411,17185 27407,17217 27403,17246 27399,17278 27395,17305 27391,17334 27387,17364 27382,17396 27378,17425 27374,17452 27369,17484 27365,17516 27360,17545 27356,17572 27351,17602 27346,17631 27341,17663 27336,17694 27330,17723 27326,17749 27321,17776 27316,17809 27310,17840 27305,17867 27299,17901 27293,17928 27289,17953 27282,17986 27276,18018 27270,18045 27265,18072 27258,18103 27252,18136 27246,18163 27240,18190 27233,18222 27226,18253 27220,18280 27214,18307 27207,18338 27201,18366 27194,18398 27186,18429 27180,18456 27173,18482 27167,18509 27159,18540 27151,18573 27144,18600 27137,18631 27130,18658 27123,18684 27114,18720 27106,18747 27099,18773 27091,18805 27083,18832 27076,18857 27068,18889 27058,18921 27051,18947 27044,18973 27034,19005 27025,19035 27018,19061 27010,19089 27000,19120 26992,19146 26983,19177 26974,19208 26967,19229 26957,19261 26947,19292 26938,19322 26929,19349 26920,19375 26910,19406 26902,19432 26892,19462 26883,19489 26874,19515 26862,19551 26852,19577 26844,19602 26833,19632 26824,19659 26813,19689 26803,19715 26794,19741 26782,19776 26772,19802 26762,19828 26751,19858 26741,19883 26732,19910 26720,19940 26709,19970 26698,19996 26687,20026 26677,20051 26666,20077 26653,20112 26642,20138 26632,20163 26620,20193 26609,20218 26598,20244 26586,20274 26573,20304 26563,20328 26552,20354 26539,20384 26526,20414 26515,20439 26502,20469 26491,20494 26480,20519 26467,20549 26453,20578 26442,20603 26430,20628 26417,20658 26403,20687 26389,20717 26380,20737 26366,20766 26352,20796 26340,20820 26326,20850 26314,20874 26302,20899 26288,20928 26273,20958 26261,20982 26249,21007 26234,21036 26219,21065 26207,21089 26194,21114 26179,21143 26164,21172 26152,21196 26136,21225 26123,21249 26110,21273 26095,21302 26080,21331 26066,21355 26053,21379 26035,21412 26022,21436 26008,21460 25992,21488 25979,21512 25965,21536 25949,21565 25933,21593 25920,21617 25903,21645 25889,21669 25875,21693 25859,21721 25842,21749 25825,21777 25811,21800 25797,21824 25783,21847 25766,21875 25749,21903 25734,21927 25717,21954 25699,21982 25685,22005 25670,22029 25655,22052 25638,22080 25620,22107 25602,22134 25587,22158 25572,22181 25554,22207 25539,22231 25521,22258 25502,22285 25487,22308 25471,22331 25453,22358 25435,22385 25419,22408 25403,22431 25385,22458 25366,22484 25350,22507 25334,22530 25315,22556 25296,22583 25280,22606 25263,22628 25245,22654 25225,22681 25208,22704 25190,22728 25169,22757 25146,22788 25123,22817 25103,22844 25080,22875 25057,22904 25037,22930 25014,22961 24990,22990 24970,23017 24947,23046 24920,23079 24899,23105 24879,23131 24855,23160 24831,23189 24807,23218 24786,23244 24761,23273 24738,23302 24713,23330 24689,23359 24667,23384 24645,23410 24621,23438 24594,23470 24571,23495 24550,23520 24525,23548 24500,23576 24475,23604 24450,23632 24426,23657 24404,23681 24376,23712 24351,23739 24328,23763 24305,23788 24279,23816 24254,23843 24228,23870 24202,23896 24178,23921 24153,23947 24126,23974 24102,23998 24077,24024 24051,24050 24026,24075 23999,24102 23973,24127 23950,24150 23922,24177 23895,24203 23869,24228 23845,24251 23817,24277 23790,24303 23765,24326 23738,24351 23714,24374 23687,24399 23659,24424 23631,24450 23603,24475 23579,24497 23550,24522 23523,24547 23498,24569 23473,24590 23445,24615 23416,24640 23388,24664 23360,24688 23334,24710 23306,24734 23277,24758 23251,24780 23222,24803 23194,24827 23168,24848 23143,24868 23113,24893 23081,24918 23055,24939 23028,24960 22999,24983 22970,25006 22940,25030 22914,25050 22885,25072 22855,25094 22829,25114 22799,25138 22770,25158 22742,25180 22712,25202 22685,25222 22655,25243 22625,25266 22594,25287 22566,25308 22540,25327 22510,25348 22478,25370 22450,25390 22418,25412 22389,25432 22363,25449 22332,25471 22300,25493 22271,25512 22239,25533 22210,25552 22184,25570 22152,25591 22121,25610 22093,25629 22061,25649 22028,25670 22000,25688 21969,25707 21938,25726 21910,25744 21877,25764 21847,25782 21816,25801 21785,25820 21755,25838 21725,25855 21692,25875 21662,25893 21632,25910 21599,25930 21568,25947 21536,25965 21508,25981 21474,26000 21442,26018 21413,26034 21380,26053 21351,26069 21319,26086 21284,26104 21254,26121 21222,26138 21189,26155 21160,26170 21131,26185 21093,26205 21062,26221 21033,26236 20997,26253 20967,26268 20936,26284 20901,26301 20868,26317 20835,26333 20806,26347 20774,26362 20739,26379 20706,26394 20676,26408 20643,26423 20607,26440 20575,26454 20545,26468 20512,26483 20479,26497 20443,26513 20411,26527 20381,26540 20344,26556 20311,26570 20281,26583 20248,26597 20212,26612 20178,26625 20145,26639 20112,26652 20079,26666 20045,26679 20014,26691 19978,26705 19947,26717 19916,26729 19874,26745 19840,26758 19809,26769 19776,26781 19745,26793 19711,26805 19674,26818 19640,26830 19606,26843 19569,26855 19538,26866 19504,26878 19470,26889 19435,26900 19401,26912 19367,26923 19330,26935 19298,26945 19264,26956 19229,26967 19195,26978 19160,26988 19126,26999 19088,27010 19056,27019 19022,27030 18981,27041 18950,27050 18918,27060 18883,27069 18845,27080 18811,27089 18781,27097 18743,27107 18706,27117 18668,27127 18636,27135 18603,27144 18566,27153 18530,27162 18492,27171 18457,27179 18424,27187 18392,27195 18354,27204 18316,27212 18281,27220 18248,27227 18216,27235 18177,27243 18139,27251 18100,27259 18068,27266 18035,27272 17999,27279 17961,27287 17925,27294 17890,27301 17854,27307 17818,27314 17782,27320 17746,27327 17710,27333 17674,27339 17636,27345 17603,27351 17564,27357 17528,27362 17495,27368 17457,27374 17167,25431 17195,25426 17228,25421 17259,25417 17286,25412 17319,25407 17347,25402 17377,25397 17407,25392 17437,25386 17468,25381 17497,25376 17527,25370 17558,25364 17588,25358 17615,25353 17645,25347 17678,25340 17710,25334 17737,25328 17764,25323 17791,25317 17824,25309 17856,25302 17886,25296 17913,25290 17940,25283 17972,25276 18005,25268 18034,25261 18061,25254 18091,25247 18117,25240 18149,25232 18182,25224 18208,25217 18235,25210 18262,25203 18296,25193 18326,25185 18352,25178 18381,25170 18413,25161 18445,25152 18469,25145 18498,25136 18529,25127 18556,25119 18585,25110 18613,25101 18643,25092 18671,25083 18700,25074 18732,25064 18758,25056 18786,25046 18815,25037 18844,25027 18872,25017 18901,25008 18932,24997 18958,24988 18987,24978 19015,24968 19041,24959 19069,24949 19100,24937 19128,24927 19159,24915 19187,24905 19207,24897 19238,24885 19269,24873 19294,24863 19325,24851 19353,24840 19380,24829 19409,24818 19437,24806 19465,24795 19490,24785 19517,24773 19547,24760 19576,24748 19600,24738 19630,24725 19658,24713 19683,24702 19710,24689 19737,24677 19767,24664 19795,24651 19820,24640 19847,24628 19877,24614 19904,24601 19928,24589 19956,24576 19985,24562 20012,24549 20038,24536 20063,24524 20090,24510 20120,24496 20143,24484 20172,24469 20200,24455 20221,24444 20250,24429 20280,24414 20305,24400 20332,24386 20359,24372 20383,24359 20408,24345 20438,24329 20461,24316 20490,24300 20516,24286 20540,24272 20568,24256 20594,24242 20620,24226 20644,24213 20671,24197 20698,24181 20721,24167 20748,24151 20775,24135 20800,24120 20825,24105 20851,24089 20875,24075 20903,24057 20928,24042 20952,24026 20980,24009 21003,23994 21026,23979 21054,23961 21078,23945 21101,23930 21131,23911 21156,23894 21179,23879 21205,23861 21228,23846 21251,23831 21279,23811 21305,23794 21327,23778 21353,23760 21375,23744 21399,23727 21426,23708 21451,23690 21475,23673 21497,23657 21521,23640 21547,23620 21571,23603 21594,23585 21619,23567 21641,23550 21667,23530 21691,23512 21714,23494 21740,23474 21762,23458 21785,23440 21808,23422 21832,23402 21858,23381 21878,23366 21899,23348 21925,23327 21950,23306 21973,23288 21995,23269 22019,23249 22042,23230 22064,23212 22088,23191 22110,23172 22133,23153 22154,23135 22176,23116 22200,23094 22225,23072 22247,23053 22268,23034 22293,23012 22314,22993 22335,22974 22356,22954 22378,22934 22402,22912 22423,22892 22447,22870 22468,22850 22488,22831 22512,22808 22534,22787 22554,22768 22574,22748 22599,22724 22620,22703 22639,22684 22662,22661 22683,22640 22704,22619 22727,22596 22747,22575 22768,22554 22790,22531 22810,22510 22830,22489 22851,22467 22870,22446 22893,22423 22915,22398 22935,22377 22952,22358 22974,22334 22996,22310 23016,22288 23036,22266 23055,22245 23074,22223 23097,22197 23118,22173 23135,22154 23154,22132 23175,22107 23197,22081 23216,22059 23235,22037 23254,22014 23272,21992 23293,21967 23312,21944 23330,21921 23349,21899 23370,21872 23391,21846 23406,21827 23425,21804 23445,21777 23463,21754 23481,21731 23502,21705 23520,21681 23537,21658 23557,21632 23575,21608 23593,21584 23611,21559 23626,21539 23642,21518 23656,21499 23669,21480 23686,21457 23702,21435 23715,21417 23728,21398 23744,21375 23760,21352 23774,21334 23786,21315 23802,21292 23818,21269 23831,21251 23844,21232 23859,21209 23875,21186 23887,21167 23900,21148 23915,21125 23928,21106 23943,21082 23958,21060 23970,21041 23983,21021 23995,21002 24009,20979 24024,20955 24039,20932 24051,20913 24063,20894 24078,20870 24090,20851 24101,20831 24116,20808 24130,20784 24144,20760 24156,20741 24168,20721 24179,20702 24193,20678 24207,20654 24218,20635 24232,20611 24243,20591 24254,20572 24268,20548 24281,20524 24293,20504 24306,20480 24320,20456 24328,20440 24341,20416 24354,20392 24365,20372 24376,20352 24389,20328 24402,20303 24412,20283 24425,20259 24435,20239 24446,20219 24458,20195 24471,20170 24481,20150 24491,20130 24503,20105 24516,20080 24526,20060 24535,20040 24547,20015 24559,19991 24569,19970 24581,19946 24591,19925 24600,19905 24614,19876 24624,19855 24633,19835 24643,19814 24654,19789 24665,19765 24675,19744 24684,19724 24695,19699 24706,19673 24715,19652 24726,19627 24735,19607 24744,19587 24754,19562 24765,19536 24774,19515 24783,19494 24793,19469 24803,19444 24812,19423 24823,19397 24833,19372 24839,19356 24849,19330 24860,19305 24868,19284 24877,19259 24886,19237 24894,19216 24903,19191 24913,19166 24921,19144 24930,19118 24940,19093 24946,19076 24955,19051 24965,19025 24972,19004 24981,18978 24988,18957 24997,18931 25007,18905 25012,18889 25021,18863 25029,18837 25037,18816 25045,18789 25052,18768 25061,18742 25069,18717 25076,18694 25083,18673 25089,18652 25099,18621 25106,18600 25112,18578 25120,18552 25127,18530 25134,18505 25142,18479 25149,18456 25154,18435 25162,18409 25170,18382 25176,18361 25181,18340 25189,18312 25196,18286 25202,18265 25209,18239 25216,18212 25220,18195 25227,18169 25234,18142 25240,18120 25246,18093 25252,18073 25257,18051 25263,18024 25270,17997 25276,17971 25281,17949 25287,17926 25292,17901 25297,17879 25303,17852 25309,17826 25314,17803 25319,17781 25325,17754 25330,17728 25335,17707 25339,17684 25345,17657 25350,17630 25355,17608 25359,17587 25364,17559 25369,17532 25373,17511 25378,17484 25382,17461 25386,17441 25390,17414 25396,17385 25400,17359 25404,17337 25408,17314 25412,17289 25416,17265 25420,17237 25424,17212 25427,17189 25431,17167 25435,17139 25439,17114 25442,17091 25445,17067 25448,17041 25452,17014 25455,16991 25459,16966 25462,16943 25464,16921 25467,16893 25471,16866 25474,16838 25477,16816 25479,16794 25482,16767 25484,16744 25487,16717 25490,16689 25492,16668 25494,16646 25497,16618 25499,16590 25501,16567 25504,16540 25506,16519 25507,16496 25509,16468 25511,16443 25513,16413 25515,16390 25517,16369 25518,16341 25520,16320 25521,16293 25523,16263 25524,16242 25525,16219 25527,16191 25528,16166 25529,16143 25530,16115 25531,16092 25532,16068 25533,16041 25534,16015 25534,15988 25535,15964 25536,15941 25536,15913 25537,15888 25537,15865 25537,15841 25538,15816 25538,15788 25538,15764 25538,15737 25538,15709 25538,15692 25538,15664 25538,15637 25538,15628 23975,15653 "/>
  </g>
 </g>
</svg>
