<?xml version="1.0" encoding="UTF-8"?>
<!DOCTYPE svg PUBLIC "-//W3C//DTD SVG 1.1//EN" "http://www.w3.org/Graphics/SVG/1.1/DTD/svg11.dtd">
<!-- Creator: CorelDRAW X7 -->
<svg xmlns="http://www.w3.org/2000/svg" xml:space="preserve" width="21.8627mm" height="21.8627mm" version="1.1" style="shape-rendering:geometricPrecision; text-rendering:geometricPrecision; image-rendering:optimizeQuality; fill-rule:evenodd; clip-rule:evenodd"
viewBox="0 0 31337 31337"
 xmlns:xlink="http://www.w3.org/1999/xlink">
 <defs>
  <style type="text/css">
   <![CDATA[
    .fil0 {fill:none}
    .fil1 {fill:#D7D7D7;fill-rule:nonzero}
   ]]>
  </style>
 </defs>
 <g id="圖層_x0020_1">
  <metadata id="CorelCorpID_0Corel-Layer"/>
  <g id="_1165643888">
   <rect class="fil0" width="31337" height="31337"/>
   <path class="fil1" d="M5875 3939l0 7812 2340 0 3701 -7282 854 -1682 882 1666 6945 13106 3036 -5314 282 -494 567 0 2938 0 0 1959 -2371 0 -3635 6361 -881 1542 -833 -1572 -6894 -13012 -3120 6141 -274 540 -599 0 -2938 0 -1 11773 1960 0 0 -9815 1959 0 0 9815 1958 0 0 -12753 1959 0 0 12753 1958 0 0 -5898 1959 0 0 5898 1958 0 0 -2954 1959 0 0 2954 1959 0 0 -5898 1958 0 0 5898 1957 0c-4,853 0,964 0,1958l-23502 0 1 -23502 1958 0z"/>
  </g>
 </g>
</svg>
