<?xml version="1.0" encoding="UTF-8"?>
<!DOCTYPE svg PUBLIC "-//W3C//DTD SVG 1.1//EN" "http://www.w3.org/Graphics/SVG/1.1/DTD/svg11.dtd">
<!-- Creator: CorelDRAW X7 -->
<svg xmlns="http://www.w3.org/2000/svg" xml:space="preserve" width="21.8627mm" height="21.8627mm" version="1.1" style="shape-rendering:geometricPrecision; text-rendering:geometricPrecision; image-rendering:optimizeQuality; fill-rule:evenodd; clip-rule:evenodd"
viewBox="0 0 34294 34294"
 xmlns:xlink="http://www.w3.org/1999/xlink">
 <defs>
  <style type="text/css">
   <![CDATA[
    .str0 {stroke:#00A2E9;stroke-width:119.528}
    .fil0 {fill:none}
    .fil1 {fill:#5AC8FA;fill-rule:nonzero}
   ]]>
  </style>
 </defs>
 <g id="圖層_x0020_1">
  <metadata id="CorelCorpID_0Corel-Layer"/>
  <g id="_1164314032">
   <rect class="fil0" width="34294" height="34294"/>
   <path class="fil1 str0" d="M6430 4310l-1 8550 2561 0 4050 -7970 935 -1840 966 1824 7599 14342 3323 -5816 309 -540 620 0 3215 0 0 2144 -2594 0 -3978 6961 -964 1687 -911 -1720 -7546 -14239 -3414 6720 -300 591 -655 0 -3216 0 -1 12884 2146 0 -1 -10741 2144 0 0 10741 2143 0 0 -13956 2144 0 0 13956 2143 0 0 -6454 2143 0 1 6454 2143 0 0 -3232 2143 0 0 3232 2144 0 0 -6454 2143 0 0 6454 2141 0c-4,934 0,1055 0,2143l-25720 0 2 -25721 2143 0z"/>
  </g>
 </g>
</svg>
