<?xml version="1.0" encoding="UTF-8"?>
<!DOCTYPE svg PUBLIC "-//W3C//DTD SVG 1.1//EN" "http://www.w3.org/Graphics/SVG/1.1/DTD/svg11.dtd">
<!-- Creator: CorelDRAW X7 -->
<svg xmlns="http://www.w3.org/2000/svg" xml:space="preserve" width="21.8629mm" height="21.8628mm" version="1.1" style="shape-rendering:geometricPrecision; text-rendering:geometricPrecision; image-rendering:optimizeQuality; fill-rule:evenodd; clip-rule:evenodd"
viewBox="0 0 31432 31432"
 xmlns:xlink="http://www.w3.org/1999/xlink">
 <defs>
  <style type="text/css">
   <![CDATA[
    .fil0 {fill:none}
    .fil1 {fill:#D7D7D7;fill-rule:nonzero}
   ]]>
  </style>
 </defs>
 <g id="圖層_x0020_1">
  <metadata id="CorelCorpID_0Corel-Layer"/>
  <g id="_1224465120">
   <rect class="fil0" width="31432" height="31432"/>
   <polygon class="fil1" points="3925,16698 7093,16698 9360,7621 10402,3446 11270,7663 14138,21592 17785,14297 18396,13075 19355,14044 21980,16696 27490,16610 27513,18567 21588,18659 21174,18666 20882,18371 18924,16393 14624,24994 13360,27522 12790,24752 10220,12271 8810,17919 8624,18663 7858,18663 3925,18663 "/>
   <path class="fil1" d="M21118 3929c1977,0 3504,560 4680,1326 1170,763 1971,1718 2516,2526l365 542 -357 544c-546,832 -1348,1799 -2521,2569l0 4c-1174,771 -2703,1330 -4683,1330 -1979,0 -3508,-559 -4683,-1330 -1164,-764 -1967,-1735 -2518,-2573l-360 -548 364 -538c546,-808 1347,-1764 2518,-2526 1176,-766 2704,-1326 4679,-1326zm2897 2570c343,534 541,1169 541,1851 0,679 -197,1312 -537,1845 254,-120 490,-254 708,-397l2 2c653,-429 1165,-954 1562,-1463 -397,-499 -908,-1015 -1560,-1440 -220,-144 -458,-278 -716,-398zm-5797 3696c-340,-533 -537,-1166 -537,-1845 0,-682 198,-1317 541,-1851 -258,120 -496,254 -716,398 -653,425 -1165,943 -1563,1442 396,505 908,1026 1566,1459 219,143 455,277 709,397zm3942 -2887c-266,-266 -635,-431 -1042,-431 -407,0 -775,165 -1041,431 -267,266 -432,635 -432,1042 0,407 165,776 432,1042 266,266 634,431 1041,431 407,0 776,-165 1042,-431 267,-266 432,-635 432,-1042 0,-407 -165,-776 -432,-1042z"/>
  </g>
 </g>
</svg>
