<?xml version="1.0" encoding="UTF-8"?>
<!DOCTYPE svg PUBLIC "-//W3C//DTD SVG 1.1//EN" "http://www.w3.org/Graphics/SVG/1.1/DTD/svg11.dtd">
<!-- Creator: CorelDRAW X7 -->
<svg xmlns="http://www.w3.org/2000/svg" xml:space="preserve" width="21.8629mm" height="21.8628mm" version="1.1" style="shape-rendering:geometricPrecision; text-rendering:geometricPrecision; image-rendering:optimizeQuality; fill-rule:evenodd; clip-rule:evenodd"
viewBox="0 0 32394 32394"
 xmlns:xlink="http://www.w3.org/1999/xlink">
 <defs>
  <style type="text/css">
   <![CDATA[
    .fil0 {fill:none}
    .fil1 {fill:#5AC8FA;fill-rule:nonzero}
   ]]>
  </style>
 </defs>
 <g id="圖層_x0020_1">
  <metadata id="CorelCorpID_0Corel-Layer"/>
  <g id="_1167009968">
   <rect class="fil0" width="32394" height="32394"/>
   <polygon class="fil1" points="4045,17209 7310,17209 9646,7854 10720,3551 11615,7897 14571,22252 18330,14734 18959,13475 19947,14473 22652,17207 28331,17119 28355,19136 22248,19230 21822,19237 21521,18934 19503,16895 15071,25759 13769,28364 13181,25510 10533,12646 9079,18467 8888,19234 8099,19234 4045,19234 "/>
   <path class="fil1" d="M21765 4050c2037,0 3611,576 4822,1366 1207,786 2032,1770 2594,2603l376 558 -368 561c-563,857 -1389,1854 -2598,2648l0 4c-1211,794 -2786,1371 -4826,1371 -2041,0 -3616,-577 -4827,-1371 -1199,-788 -2028,-1788 -2595,-2652l-371 -564 375 -555c563,-833 1389,-1817 2595,-2603 1212,-790 2786,-1366 4823,-1366zm2985 2647c353,551 558,1206 558,1908 0,700 -203,1352 -554,1902 262,-124 505,-262 730,-410l2 3c673,-442 1200,-983 1610,-1508 -410,-514 -936,-1046 -1608,-1484 -227,-148 -473,-286 -738,-411zm-5975 3810c-350,-549 -553,-1202 -553,-1902 0,-702 204,-1357 557,-1908 -265,125 -510,263 -738,411 -673,438 -1200,972 -1610,1486 408,520 936,1058 1614,1503 226,148 469,287 730,410zm4064 -2976c-275,-274 -655,-444 -1074,-444 -420,0 -800,170 -1074,444 -274,275 -445,655 -445,1074 0,420 171,800 445,1074 274,274 654,445 1074,445 419,0 799,-171 1074,-445 274,-274 444,-654 444,-1074 0,-419 -170,-799 -444,-1074z"/>
  </g>
 </g>
</svg>
