<?xml version="1.0" encoding="UTF-8"?>
<!DOCTYPE svg PUBLIC "-//W3C//DTD SVG 1.1//EN" "http://www.w3.org/Graphics/SVG/1.1/DTD/svg11.dtd">
<!-- Creator: CorelDRAW X7 -->
<svg xmlns="http://www.w3.org/2000/svg" xml:space="preserve" width="22.5774mm" height="22.9252mm" version="1.1" style="shape-rendering:geometricPrecision; text-rendering:geometricPrecision; image-rendering:optimizeQuality; fill-rule:evenodd; clip-rule:evenodd"
viewBox="0 0 33504 34020"
 xmlns:xlink="http://www.w3.org/1999/xlink">
 <defs>
  <style type="text/css">
   <![CDATA[
    .fil0 {fill:none}
    .fil2 {fill:#D7D7D7}
    .fil1 {fill:#D7D7D7;fill-rule:nonzero}
   ]]>
  </style>
 </defs>
 <g id="圖層_x0020_1">
  <metadata id="CorelCorpID_0Corel-Layer"/>
  <g id="_1224485600">
   <rect class="fil0" y="516" width="33504" height="33504"/>
   <path class="fil1" d="M7186 22027l1183 -252c142,670 686,1004 1634,1004 431,0 764,-84 997,-257 233,-170 348,-383 348,-638 0,-185 -52,-355 -157,-512 -107,-158 -333,-281 -679,-369l-1291 -338c-443,-115 -769,-246 -980,-392 -212,-147 -382,-355 -509,-622 -127,-267 -191,-552 -191,-856 0,-603 225,-1088 674,-1453 450,-365 1023,-548 1722,-548 581,0 1100,129 1558,382 456,253 748,613 874,1080l-1160 287c-177,-512 -593,-767 -1247,-767 -380,0 -669,78 -868,237 -199,158 -299,359 -299,604 0,386 312,656 939,811l1149 288c697,174 1163,432 1401,774 238,342 357,719 357,1132 0,662 -250,1186 -751,1566 -500,382 -1147,571 -1943,573 -669,-2 -1255,-142 -1759,-423 -503,-280 -838,-716 -1002,-1311z"/>
   <path id="1" class="fil1" d="M16682 23761c-897,-2 -1596,-338 -2097,-1011 -498,-674 -748,-1505 -748,-2495 0,-984 265,-1807 796,-2467 532,-663 1233,-994 2103,-994 879,0 1573,331 2082,994 510,660 765,1488 765,2482 0,1042 -265,1886 -794,2528 -530,642 -1231,961 -2107,963zm10 -982c440,0 810,-181 1114,-544 304,-363 456,-1021 456,-1975 0,-776 -127,-1384 -377,-1823 -250,-441 -640,-661 -1167,-661 -1045,0 -1565,840 -1565,2519 0,815 132,1433 399,1854 265,421 645,630 1140,630z"/>
   <path id="2" class="fil1" d="M22441 23656l-1217 0 0 -6757 2766 0c789,0 1374,199 1756,596 380,397 571,867 571,1408 0,618 -206,1119 -618,1500 -413,384 -937,575 -1570,575l-1688 0 0 2678zm0 -3722l1441 0c375,0 662,-93 860,-277 200,-186 298,-431 298,-739 0,-277 -92,-514 -274,-713 -184,-198 -515,-296 -994,-296l-1331 0 0 2025z"/>
   <rect class="fil2" x="14724" y="9125" width="10138" height="2028"/>
   <rect class="fil2" x="14724" y="12166" width="10138" height="2028"/>
   <rect class="fil0" x="530" width="32443" height="32443"/>
   <path class="fil1" d="M10670 5070l17234 0 1011 0 -1 1013 -2 20277 0 1010 -1009 0 -22303 2 -1014 0 0 -1010 0 -15170 0 -414 297 -299 5071 -5108 299 -301 417 0zm-3593 6069l3592 13 0 -3632 -3592 3619zm5620 -4042l0 5069 0 1014 -1014 -4 -5069 -19 0 12196 20279 -2 2 -18254 -14198 0z"/>
   <path class="fil2" d="M7186 22027l1183 -252c142,669 686,1004 1634,1004 431,0 764,-84 997,-257 233,-170 348,-383 348,-639 0,-184 -53,-354 -157,-511 -107,-158 -333,-281 -679,-369l-1292 -338c-442,-115 -768,-246 -980,-392 -211,-147 -381,-354 -508,-621 -127,-267 -191,-553 -191,-857 0,-603 225,-1088 674,-1454 450,-365 1023,-547 1722,-547 581,0 1100,128 1558,382 456,253 749,613 874,1080l-1159 287c-178,-512 -594,-767 -1248,-767 -380,0 -669,78 -868,236 -199,159 -299,360 -299,605 0,386 312,656 939,811l1149 288c696,174 1163,432 1401,774 238,342 357,719 357,1132 0,662 -250,1186 -751,1566 -500,382 -1147,571 -1943,573 -669,-2 -1255,-142 -1759,-423 -503,-280 -838,-716 -1002,-1311zm9496 1734c-897,-2 -1596,-338 -2096,-1010 -499,-675 -749,-1506 -749,-2496 0,-984 265,-1807 796,-2467 532,-663 1234,-994 2104,-994 878,0 1573,331 2081,994 511,660 766,1488 766,2482 0,1042 -265,1886 -794,2528 -531,642 -1232,961 -2108,963zm11 -982c439,0 809,-181 1113,-544 304,-363 457,-1021 457,-1975 0,-776 -127,-1384 -377,-1824 -250,-440 -641,-660 -1168,-660 -1044,0 -1564,839 -1564,2519 0,815 131,1433 398,1854 265,420 646,630 1141,630zm5748 877l-1216 0 0 -6757 2766 0c789,0 1374,199 1755,596 380,397 572,867 572,1408 0,618 -207,1118 -619,1500 -412,384 -936,575 -1570,575l-1688 0 0 2678zm0 -3722l1441 0c376,0 663,-93 861,-278 199,-185 297,-430 297,-738 0,-277 -91,-513 -274,-713 -184,-198 -515,-296 -993,-296l-1332 0 0 2025z"/>
   <rect class="fil2" x="14724" y="9125" width="10138" height="2028"/>
   <rect class="fil2" x="14724" y="12166" width="10138" height="2028"/>
  </g>
 </g>
</svg>
