<?xml version="1.0" encoding="UTF-8"?>
<!DOCTYPE svg PUBLIC "-//W3C//DTD SVG 1.1//EN" "http://www.w3.org/Graphics/SVG/1.1/DTD/svg11.dtd">
<!-- Creator: CorelDRAW X7 -->
<svg xmlns="http://www.w3.org/2000/svg" xml:space="preserve" width="22.5774mm" height="22.9252mm" version="1.1" style="shape-rendering:geometricPrecision; text-rendering:geometricPrecision; image-rendering:optimizeQuality; fill-rule:evenodd; clip-rule:evenodd"
viewBox="0 0 34529 35061"
 xmlns:xlink="http://www.w3.org/1999/xlink">
 <defs>
  <style type="text/css">
   <![CDATA[
    .fil0 {fill:none}
    .fil4 {fill:#5AC8FA}
    .fil2 {fill:#D7D7D7}
    .fil3 {fill:#5AC8FA;fill-rule:nonzero}
    .fil1 {fill:#D7D7D7;fill-rule:nonzero}
   ]]>
  </style>
 </defs>
 <g id="圖層_x0020_1">
  <metadata id="CorelCorpID_0Corel-Layer"/>
  <g id="_962549600">
   <rect class="fil0" y="532" width="34529" height="34529"/>
   <path class="fil1" d="M7406 22701l1219 -260c146,690 707,1035 1684,1035 444,0 787,-87 1027,-265 241,-176 359,-395 359,-658 0,-190 -54,-366 -162,-528 -110,-162 -343,-289 -700,-379l-1330 -349c-457,-118 -793,-254 -1010,-404 -218,-151 -394,-365 -524,-641 -131,-275 -197,-569 -197,-882 0,-622 231,-1122 695,-1498 463,-376 1053,-564 1774,-564 599,0 1134,132 1606,393 470,262 771,633 900,1113l-1195 296c-183,-527 -611,-790 -1285,-790 -392,0 -689,80 -895,243 -205,164 -308,371 -308,624 0,397 322,675 968,836l1184 296c718,179 1198,446 1444,797 245,354 367,742 367,1167 0,683 -257,1222 -773,1614 -515,394 -1182,589 -2003,591 -689,-2 -1293,-147 -1812,-436 -519,-289 -864,-738 -1033,-1351z"/>
   <path id="1" class="fil1" d="M17193 24488c-925,-2 -1646,-349 -2161,-1042 -514,-695 -772,-1551 -772,-2572 0,-1013 273,-1861 820,-2542 549,-683 1271,-1024 2168,-1024 906,0 1621,341 2146,1024 526,681 788,1534 788,2558 0,1074 -273,1943 -818,2605 -547,662 -1269,991 -2171,993zm10 -1012c453,0 834,-187 1148,-561 313,-374 470,-1052 470,-2036 0,-799 -131,-1426 -389,-1878 -257,-455 -660,-681 -1203,-681 -1076,0 -1612,865 -1612,2596 0,839 136,1477 411,1910 273,434 665,650 1175,650z"/>
   <path id="2" class="fil1" d="M23127 24380l-1254 0 0 -6964 2851 0c813,0 1416,205 1809,614 392,410 589,894 589,1451 0,638 -213,1153 -637,1546 -425,396 -965,593 -1618,593l-1740 0 0 2760zm0 -3837l1486 0c386,0 682,-95 886,-285 205,-192 306,-444 306,-761 0,-286 -94,-530 -282,-735 -189,-204 -531,-305 -1023,-305l-1373 0 0 2086z"/>
   <rect class="fil2" x="15175" y="9404" width="10448" height="2090"/>
   <rect class="fil2" x="15175" y="12539" width="10448" height="2090"/>
   <rect class="fil0" x="547" width="33435" height="33435"/>
   <path class="fil3" d="M10997 5225l17761 0 1041 0 0 1044 -2 20898 0 1040 -1041 1 -22985 2 -1045 0 0 -1041 0 -15635 0 -426 306 -308 5226 -5265 308 -310 431 0zm-3704 6254l3702 15 0 -3744 -3702 3729zm5792 -4165l0 5225 0 1044 -1045 -4 -5224 -20 0 12569 20899 -2 2 -18812 -14632 0z"/>
   <path class="fil4" d="M7406 22701l1219 -260c146,690 707,1035 1684,1035 444,0 787,-87 1027,-265 241,-176 359,-395 359,-658 0,-190 -54,-366 -162,-528 -110,-162 -343,-289 -700,-379l-1331 -349c-456,-118 -792,-254 -1009,-404 -218,-151 -394,-365 -524,-640 -131,-275 -197,-570 -197,-883 0,-622 231,-1122 695,-1498 463,-376 1053,-564 1774,-564 599,0 1134,132 1606,393 470,262 771,632 900,1113l-1195 296c-183,-528 -611,-791 -1285,-791 -391,0 -690,81 -895,244 -205,164 -308,371 -308,624 0,397 322,675 968,835l1184 297c718,179 1198,445 1444,797 245,354 367,742 367,1167 0,683 -257,1222 -773,1614 -515,394 -1182,589 -2002,591 -690,-2 -1294,-147 -1813,-436 -519,-289 -864,-738 -1033,-1351zm9787 1787c-925,-2 -1646,-349 -2161,-1042 -514,-695 -772,-1551 -772,-2572 0,-1013 273,-1862 821,-2542 548,-683 1271,-1024 2168,-1024 905,0 1621,341 2145,1024 526,680 789,1534 789,2558 0,1074 -273,1943 -819,2605 -547,662 -1269,991 -2171,993zm10 -1012c453,0 834,-187 1148,-561 313,-374 470,-1052 470,-2036 0,-799 -131,-1426 -388,-1879 -258,-454 -660,-681 -1204,-681 -1076,0 -1612,866 -1612,2597 0,839 136,1477 411,1910 273,434 665,650 1175,650zm5925 904l-1254 0 0 -6964 2851 0c813,0 1415,205 1809,614 392,410 588,894 588,1451 0,638 -212,1153 -637,1546 -425,396 -965,593 -1618,593l-1739 0 0 2760zm0 -3837l1485 0c387,0 683,-96 886,-285 206,-192 307,-444 307,-761 0,-286 -94,-529 -282,-735 -190,-204 -531,-305 -1024,-305l-1372 0 0 2086z"/>
   <rect class="fil4" x="15175" y="9404" width="10448" height="2090"/>
   <rect class="fil4" x="15175" y="12539" width="10448" height="2090"/>
  </g>
 </g>
</svg>
