<?xml version="1.0" encoding="UTF-8"?>
<!DOCTYPE svg PUBLIC "-//W3C//DTD SVG 1.1//EN" "http://www.w3.org/Graphics/SVG/1.1/DTD/svg11.dtd">
<!-- Creator: CorelDRAW X7 -->
<svg xmlns="http://www.w3.org/2000/svg" xml:space="preserve" width="21.863mm" height="21.8629mm" version="1.1" style="shape-rendering:geometricPrecision; text-rendering:geometricPrecision; image-rendering:optimizeQuality; fill-rule:evenodd; clip-rule:evenodd"
viewBox="0 0 31432 31432"
 xmlns:xlink="http://www.w3.org/1999/xlink">
 <defs>
  <style type="text/css">
   <![CDATA[
    .fil0 {fill:none}
    .fil2 {fill:#D7D7D7}
    .fil1 {fill:#D7D7D7;fill-rule:nonzero}
   ]]>
  </style>
 </defs>
 <g id="圖層_x0020_1">
  <metadata id="CorelCorpID_0Corel-Layer"/>
  <g id="_1224467840">
   <rect class="fil0" width="31432" height="31432"/>
   <path class="fil1" d="M4274 13374l673 -6229 38 -349 242 -242 1411 -1410 242 -243 349 -38 6237 -681 464 -51 334 335 13183 13210 692 693 -692 692 -8321 8321 -693 693 -696 -697 -13183 -13210 -330 -331 50 -463zm2584 -5674l-585 5418 12158 12182 6936 -6936 -12158 -12182 -5424 592 -927 926z"/>
   <circle class="fil2" transform="matrix(1.36942 -1.36942 1.36942 1.36942 8707.97 8629.21)" r="507"/>
   <rect class="fil2" transform="matrix(1.17378 -1.17378 2.73846 2.73846 17042.7 21131.1)" width="3550" height="507"/>
   <rect class="fil2" transform="matrix(1.17378 -1.17378 1.36904 1.36904 15653.5 19741.9)" width="3550" height="507"/>
   <rect class="fil2" transform="matrix(1.17378 -1.17378 1.36904 1.36904 14264.3 18352.7)" width="3550" height="507"/>
   <rect class="fil2" transform="matrix(1.17378 -1.17378 2.73807 2.73807 12180.9 16269.3)" width="3550" height="507"/>
   <rect class="fil2" transform="matrix(1.17378 -1.17378 1.36904 1.36904 10791.7 14880.1)" width="3550" height="507"/>
   <rect class="fil2" transform="matrix(1.17378 -1.17378 1.36904 1.36904 9402.56 13491)" width="3550" height="507"/>
   <rect class="fil0" width="31432" height="31432"/>
   <circle class="fil2" transform="matrix(1.36942 -1.36942 1.36942 1.36942 8707.97 8629.21)" r="507"/>
   <rect class="fil2" transform="matrix(1.17378 -1.17378 2.73846 2.73846 17042.7 21131.1)" width="3550" height="507"/>
   <rect class="fil2" transform="matrix(1.17378 -1.17378 1.36904 1.36904 15653.5 19741.9)" width="3550" height="507"/>
   <rect class="fil2" transform="matrix(1.17378 -1.17378 1.36904 1.36904 14264.3 18352.7)" width="3550" height="507"/>
   <rect class="fil2" transform="matrix(1.17378 -1.17378 2.73807 2.73807 12180.9 16269.3)" width="3550" height="507"/>
   <rect class="fil2" transform="matrix(1.17378 -1.17378 1.36904 1.36904 10791.7 14880.1)" width="3550" height="507"/>
   <rect class="fil2" transform="matrix(1.17378 -1.17378 1.36904 1.36904 9402.56 13491)" width="3550" height="507"/>
  </g>
 </g>
</svg>
