<?xml version="1.0" encoding="UTF-8"?>
<!DOCTYPE svg PUBLIC "-//W3C//DTD SVG 1.1//EN" "http://www.w3.org/Graphics/SVG/1.1/DTD/svg11.dtd">
<!-- Creator: CorelDRAW X7 -->
<svg xmlns="http://www.w3.org/2000/svg" xml:space="preserve" width="21.863mm" height="21.8629mm" version="1.1" style="shape-rendering:geometricPrecision; text-rendering:geometricPrecision; image-rendering:optimizeQuality; fill-rule:evenodd; clip-rule:evenodd"
viewBox="0 0 32394 32394"
 xmlns:xlink="http://www.w3.org/1999/xlink">
 <defs>
  <style type="text/css">
   <![CDATA[
    .fil0 {fill:none}
    .fil3 {fill:#5AC8FA}
    .fil2 {fill:#D7D7D7}
    .fil1 {fill:#5AC8FA;fill-rule:nonzero}
   ]]>
  </style>
 </defs>
 <g id="圖層_x0020_1">
  <metadata id="CorelCorpID_0Corel-Layer"/>
  <g id="_962551264">
   <rect class="fil0" width="32394" height="32394"/>
   <path class="fil1" d="M4405 13783l693 -6419 39 -360 250 -249 1454 -1454 250 -250 359 -39 6428 -702 478 -52 344 345 13587 13614 713 714 -713 713 -8575 8576 -715 714 -717 -718 -13587 -13614 -340 -341 52 -478zm2663 -5847l-603 5583 12530 12555 7148 -7148 -12529 -12555 -5591 611 -955 954z"/>
   <circle class="fil2" transform="matrix(1.36942 -1.36942 1.36942 1.36942 8974.45 8893.28)" r="523"/>
   <rect class="fil2" transform="matrix(1.17378 -1.17378 2.73846 2.73846 17564.2 21777.7)" width="3659" height="523"/>
   <rect class="fil2" transform="matrix(1.17378 -1.17378 1.36904 1.36904 16132.5 20346)" width="3659" height="523"/>
   <rect class="fil2" transform="matrix(1.17378 -1.17378 1.36904 1.36904 14700.8 18914.3)" width="3659" height="523"/>
   <rect class="fil2" transform="matrix(1.17378 -1.17378 2.73807 2.73807 12553.7 16767.2)" width="3659" height="523"/>
   <rect class="fil2" transform="matrix(1.17378 -1.17378 1.36904 1.36904 11122 15335.5)" width="3659" height="523"/>
   <rect class="fil2" transform="matrix(1.17378 -1.17378 1.36904 1.36904 9690.3 13903.8)" width="3659" height="523"/>
   <rect class="fil0" width="32394" height="32394"/>
   <circle class="fil3" transform="matrix(1.36942 -1.36942 1.36942 1.36942 8974.45 8893.28)" r="523"/>
   <rect class="fil3" transform="matrix(1.17378 -1.17378 2.73846 2.73846 17564.2 21777.7)" width="3659" height="523"/>
   <rect class="fil3" transform="matrix(1.17378 -1.17378 1.36904 1.36904 16132.5 20346)" width="3659" height="523"/>
   <rect class="fil3" transform="matrix(1.17378 -1.17378 1.36904 1.36904 14700.8 18914.3)" width="3659" height="523"/>
   <rect class="fil3" transform="matrix(1.17378 -1.17378 2.73807 2.73807 12553.7 16767.2)" width="3659" height="523"/>
   <rect class="fil3" transform="matrix(1.17378 -1.17378 1.36904 1.36904 11122 15335.5)" width="3659" height="523"/>
   <rect class="fil3" transform="matrix(1.17378 -1.17378 1.36904 1.36904 9690.3 13903.8)" width="3659" height="523"/>
  </g>
 </g>
</svg>
