<?xml version="1.0" encoding="UTF-8"?>
<!DOCTYPE svg PUBLIC "-//W3C//DTD SVG 1.1//EN" "http://www.w3.org/Graphics/SVG/1.1/DTD/svg11.dtd">
<!-- Creator: CorelDRAW X7 -->
<svg xmlns="http://www.w3.org/2000/svg" xml:space="preserve" width="33.8667mm" height="33.8667mm" version="1.1" style="shape-rendering:geometricPrecision; text-rendering:geometricPrecision; image-rendering:optimizeQuality; fill-rule:evenodd; clip-rule:evenodd"
viewBox="0 0 323484 323484"
 xmlns:xlink="http://www.w3.org/1999/xlink">
 <defs>
  <style type="text/css">
   <![CDATA[
    .fil0 {fill:none}
    .fil1 {fill:white}
   ]]>
  </style>
 </defs>
 <g id="圖層_x0020_1">
  <metadata id="CorelCorpID_0Corel-Layer"/>
  <g id="_1232535968">
   <rect class="fil0" width="323484" height="323484"/>
   <path class="fil1" d="M101327 263541c0,11120 8998,20116 20116,20116 11118,0 20116,-8996 20116,-20116l-40232 0zm20116 -192171c8897,0 16074,7177 16074,16074l0 7278c30729,7279 53476,34774 53476,67628l0 58835 21430 21430 0 10715 -181960 0 0 -10715 21430 -21430 0 -58835c0,-32854 22747,-60349 53477,-67628l0 -7278c0,-8897 7177,-16074 16073,-16074z"/>
  </g>
 </g>
</svg>
