<?xml version="1.0" encoding="UTF-8"?>
<!DOCTYPE svg PUBLIC "-//W3C//DTD SVG 1.1//EN" "http://www.w3.org/Graphics/SVG/1.1/DTD/svg11.dtd">
<!-- Creator: CorelDRAW X7 -->
<svg xmlns="http://www.w3.org/2000/svg" xml:space="preserve" width="33.8667mm" height="33.8667mm" version="1.1" style="shape-rendering:geometricPrecision; text-rendering:geometricPrecision; image-rendering:optimizeQuality; fill-rule:evenodd; clip-rule:evenodd"
viewBox="0 0 130135 130135"
 xmlns:xlink="http://www.w3.org/1999/xlink">
 <defs>
  <style type="text/css">
   <![CDATA[
    .fil0 {fill:none}
    .fil1 {fill:#FEFEFE}
   ]]>
  </style>
 </defs>
 <g id="圖層_x0020_1">
  <metadata id="CorelCorpID_0Corel-Layer"/>
  <rect class="fil0" width="130135" height="130135"/>
  <path class="fil1" d="M40763 106020c0,4474 3620,8093 8093,8093 4472,0 8092,-3620 8092,-8093l-16185 0zm36071 -17039l0 -13537c-12096,-4782 -20653,-16580 -20653,-30377 0,-2245 227,-4438 659,-6556 -500,-148 -1006,-284 -1518,-405l0 -2928c0,-3579 -2887,-6466 -6466,-6466 -3579,0 -6467,2887 -6467,6466l0 2928c-12362,2928 -21513,13989 -21513,27206l0 23669 -8621 8621 0 4311 73201 0 0 -4311 -8622 -8621z"/>
 </g>
</svg>
