<?xml version="1.0" encoding="UTF-8"?>
<!DOCTYPE svg PUBLIC "-//W3C//DTD SVG 1.1//EN" "http://www.w3.org/Graphics/SVG/1.1/DTD/svg11.dtd">
<!-- Creator: CorelDRAW X7 -->
<svg xmlns="http://www.w3.org/2000/svg" xml:space="preserve" width="33.8667mm" height="33.8667mm" version="1.1" style="shape-rendering:geometricPrecision; text-rendering:geometricPrecision; image-rendering:optimizeQuality; fill-rule:evenodd; clip-rule:evenodd"
viewBox="0 0 146034 146034"
 xmlns:xlink="http://www.w3.org/1999/xlink">
 <defs>
  <style type="text/css">
   <![CDATA[
    .fil0 {fill:none}
    .fil1 {fill:#FEFEFE}
    .fil2 {fill:#FFB700}
   ]]>
  </style>
 </defs>
 <g id="圖層_x0020_1">
  <metadata id="CorelCorpID_0Corel-Layer"/>
  <rect class="fil0" width="146034" height="146034"/>
  <path class="fil1" d="M45743 118973c0,5020 4062,9081 9081,9081 5020,0 9082,-4062 9082,-9081l-18163 0zm40479 -19121l0 -15191c-13574,-5365 -23177,-18605 -23177,-34088 0,-2520 254,-4980 739,-7357 -562,-166 -1129,-318 -1703,-455l0 -3285c0,-4016 -3240,-7257 -7257,-7257 -4016,0 -7256,3241 -7256,7257l0 3285c-13873,3286 -24141,15699 -24141,30530l0 26561 -9675 9674 0 4838 82144 0 0 -4838 -9674 -9674z"/>
  <circle class="fil2" cx="99686" cy="50573" r="32594"/>
 </g>
</svg>
