<?xml version="1.0" encoding="UTF-8"?>
<!DOCTYPE svg PUBLIC "-//W3C//DTD SVG 1.1//EN" "http://www.w3.org/Graphics/SVG/1.1/DTD/svg11.dtd">
<!-- Creator: CorelDRAW X7 -->
<svg xmlns="http://www.w3.org/2000/svg" xml:space="preserve" width="48.6771mm" height="19.556mm" version="1.1" style="shape-rendering:geometricPrecision; text-rendering:geometricPrecision; image-rendering:optimizeQuality; fill-rule:evenodd; clip-rule:evenodd"
viewBox="0 0 312404 125508"
 xmlns:xlink="http://www.w3.org/1999/xlink">
 <defs>
  <style type="text/css">
   <![CDATA[
    .fil0 {fill:none}
    .fil2 {fill:#9FA7B7}
    .fil1 {fill:#9FA7B7;fill-rule:nonzero}
    .fil3 {fill:white;fill-rule:nonzero}
   ]]>
  </style>
 </defs>
 <g id="menu">
  <metadata id="CorelCorpID_0Corel-Layer"/>
  <rect class="fil0" x="1" width="312404" height="125508"/>
 </g>
 <g id="__x003f__xe87c_惜_x0020_1">
  <metadata id="CorelCorpID_1Corel-Layer"/>
  <g id="_842701264">
   <polygon class="fil1" points="36775,59328 46481,59328 50063,88675 50178,88675 54454,59328 63467,59328 68088,88675 68204,88675 71670,59328 81028,59328 73865,100577 63120,100577 58902,71287 58787,71287 54800,100577 44054,100577 "/>
   <polygon class="fil1" points="82526,59328 92232,59328 92232,100577 82526,100577 "/>
   <path class="fil1" d="M104420 87983l0 1443c0,3121 867,5488 4218,5488 3409,0 4391,-2541 4391,-4910 0,-8896 -17737,-3928 -17737,-19353 0,-6586 3524,-12132 13519,-12132 9706,0 13173,4910 13173,11266l0 982 -9360 0c0,-1965 -231,-3409 -810,-4333 -577,-983 -1501,-1445 -2945,-1445 -2426,0 -3871,1445 -3871,4449 0,8608 17736,4275 17736,18834 0,9358 -5199,13114 -14096,13114 -7048,0 -13577,-2138 -13577,-10746l0 -2657 9359 0z"/>
   <polygon class="fil1" points="125388,59328 149247,59328 149247,67185 135093,67185 135093,75446 148381,75446 148381,83302 135093,83302 135093,92720 149883,92720 149883,100577 125388,100577 "/>
   <polygon class="fil1" points="151210,79953 168657,79953 168657,87809 151210,87809 "/>
   <path class="fil1" d="M171601 59328l15021 0c10225,0 12190,7395 12190,12536 0,7395 -3524,12594 -13230,12594l-4275 0 0 16119 -9706 0 0 -41249zm9706 17967l0 0 2657 0c3871,0 4796,-2426 4796,-5200 0,-3177 -1041,-5604 -4969,-5604l-2484 0 0 10804z"/>
   <path class="fil1" d="M198983 78912c59,-4275 1330,-6874 3524,-8376 2196,-1503 4853,-2023 8724,-2023 7684,0 11092,2659 11092,9244l0 16060c0,2369 0,5373 1098,6760l-9012 0c-347,-1098 -462,-2369 -521,-3582l-115 0c-1271,2772 -4217,4391 -7336,4391 -5258,0 -8320,-2774 -8320,-9533 0,-3640 1502,-6701 3813,-7972 2311,-1271 5777,-1849 8377,-2542 2830,-751 3350,-1214 3350,-3582 0,-1907 -866,-3120 -2946,-3120 -2600,0 -3351,1560 -3408,4275l-8320 0zm10861 16002l0 0c1964,0 3756,-1155 3756,-4274 0,-2600 57,-4217 57,-5488 -2946,1559 -4217,1617 -5083,2310 -984,751 -1445,1733 -1445,3467 0,2484 982,3985 2715,3985z"/>
   <path class="fil1" d="M225845 78912c58,-4275 1329,-6874 3524,-8376 2196,-1503 4853,-2023 8724,-2023 7684,0 11092,2659 11092,9244l0 16060c0,2369 0,5373 1097,6760l-9012 0c-346,-1098 -462,-2369 -520,-3582l-116 0c-1270,2772 -4217,4391 -7336,4391 -5258,0 -8320,-2774 -8320,-9533 0,-3640 1502,-6701 3813,-7972 2311,-1271 5778,-1849 8377,-2542 2832,-751 3351,-1214 3351,-3582 0,-1907 -866,-3120 -2946,-3120 -2600,0 -3351,1560 -3409,4275l-8319 0zm10862 16002l0 0c1963,0 3754,-1155 3754,-4274 0,-2600 58,-4217 58,-5488 -2946,1559 -4217,1617 -5084,2310 -982,751 -1444,1733 -1444,3467 0,2484 982,3985 2716,3985z"/>
   <path class="fil1" d="M261314 87983l0 1443c0,3121 868,5488 4218,5488 3409,0 4391,-2541 4391,-4910 0,-8896 -17737,-3928 -17737,-19353 0,-6586 3525,-12132 13519,-12132 9707,0 13173,4910 13173,11266l0 982 -9359 0c0,-1965 -231,-3409 -810,-4333 -577,-983 -1502,-1445 -2945,-1445 -2426,0 -3872,1445 -3872,4449 0,8608 17737,4275 17737,18834 0,9358 -5199,13114 -14097,13114 -7048,0 -13576,-2138 -13576,-10746l0 -2657 9358 0z"/>
  </g>
  <path class="fil2" d="M36905 50495l0 -25938 9793 0c1721,0 3037,85 3949,248 1274,211 2342,616 3206,1207 863,598 1558,1432 2083,2500 525,1069 785,2246 785,3532 0,2197 -701,4063 -2107,5585 -1401,1527 -3943,2288 -7614,2288l-6653 0 0 10578 -3442 0zm3442 -13621l6702 0c2221,0 3791,-411 4727,-1237 930,-828 1395,-1987 1395,-3490 0,-1081 -272,-2011 -822,-2784 -549,-773 -1274,-1285 -2167,-1533 -579,-151 -1648,-230 -3200,-230l-6635 0 0 9274zm19670 996c0,-4299 1160,-7667 3472,-10100 2312,-2433 5295,-3647 8954,-3647 2396,0 4552,573 6478,1714 1919,1141 3387,2735 4395,4782 1008,2041 1515,4359 1515,6949 0,2627 -531,4981 -1594,7052 -1062,2077 -2565,3647 -4509,4709 -1951,1069 -4052,1600 -6304,1600 -2445,0 -4625,-592 -6551,-1769 -1919,-1177 -3381,-2783 -4370,-4823 -991,-2035 -1486,-4191 -1486,-6467zm3550 60c0,3122 839,5579 2518,7373 1678,1793 3785,2692 6321,2692 2584,0 4703,-906 6376,-2717 1666,-1811 2499,-4383 2499,-7716 0,-2107 -356,-3948 -1068,-5518 -713,-1570 -1758,-2789 -3128,-3653 -1376,-863 -2916,-1298 -4624,-1298 -2428,0 -4517,833 -6268,2500 -1750,1666 -2626,4444 -2626,8337zm30152 12565l-6829 -25938 3562 0 3888 17008c423,1781 798,3550 1117,5301 682,-2765 1081,-4359 1196,-4781l4902 -17528 4136 0 3719 13132c912,3260 1588,6322 2023,9177 344,-1636 784,-3514 1322,-5633l4051 -16676 3447 0 -7100 25938 -3338 0 -5440 -19761c-459,-1655 -737,-2669 -840,-3043 -296,1183 -561,2198 -790,3037l-5440 19767 -3586 0zm29789 0l0 -25938 18728 0 0 3043 -15287 0 0 7970 14309 0 0 3043 -14309 0 0 8839 15903 0 0 3043 -19344 0zm24162 0l0 -25938 11496 0c2312,0 4069,236 5270,701 1201,465 2162,1286 2880,2463 718,1177 1075,2482 1075,3906 0,1842 -598,3393 -1788,4655 -1189,1262 -3024,2059 -5511,2403 911,435 1600,870 2070,1292 1002,918 1950,2071 2838,3454l4485 7064 -4286 0 -3429 -5398c-996,-1564 -1823,-2753 -2470,-3580 -652,-828 -1231,-1401 -1745,-1733 -507,-326 -1032,-555 -1563,-688 -387,-78 -1021,-121 -1908,-121l-3973 0 0 11520 -3441 0zm3441 -14491l7366 0c1570,0 2789,-163 3671,-489 881,-319 1552,-839 2004,-1557 459,-713 689,-1485 689,-2325 0,-1225 -441,-2240 -1329,-3030 -887,-791 -2288,-1184 -4202,-1184l-8199 0 0 8585zm22719 14491l0 -25938 18729 0 0 3043 -15287 0 0 7970 14309 0 0 3043 -14309 0 0 8839 15903 0 0 3043 -19345 0zm24090 0l0 -25938 8936 0c2016,0 3556,121 4619,369 1485,344 2752,966 3803,1859 1371,1160 2391,2633 3067,4432 682,1799 1020,3858 1020,6170 0,1968 -229,3713 -688,5235 -458,1521 -1050,2783 -1769,3779 -725,996 -1510,1781 -2366,2349 -852,573 -1885,1008 -3092,1304 -1213,296 -2602,441 -4171,441l-9359 0zm3441 -3043l5531 0c1709,0 3049,-157 4021,-477 972,-320 1744,-767 2325,-1346 808,-815 1442,-1914 1895,-3291 453,-1376 683,-3043 683,-5005 0,-2717 -448,-4806 -1335,-6267 -887,-1461 -1968,-2439 -3242,-2934 -918,-357 -2397,-532 -4438,-532l-5440 0 0 19852zm32717 3043l0 -25938 9733 0c1981,0 3568,260 4770,785 1195,525 2131,1335 2807,2428 682,1086 1021,2227 1021,3423 0,1104 -302,2149 -900,3127 -598,978 -1503,1769 -2717,2373 1570,459 2777,1244 3617,2355 845,1104 1268,2415 1268,3924 0,1220 -260,2349 -774,3393 -512,1045 -1147,1847 -1901,2415 -755,561 -1703,990 -2838,1280 -1141,290 -2535,435 -4190,435l-9896 0zm3442 -15034l5609 0c1522,0 2614,-102 3272,-302 876,-259 1534,-694 1975,-1298 440,-603 664,-1358 664,-2270 0,-863 -206,-1624 -622,-2276 -411,-658 -1003,-1111 -1770,-1352 -766,-242 -2082,-363 -3942,-363l-5186 0 0 7861zm0 11991l6460 0c1111,0 1890,-42 2342,-127 785,-139 1450,-374 1981,-707 531,-332 966,-814 1310,-1448 345,-634 513,-1365 513,-2192 0,-972 -247,-1811 -748,-2530 -495,-718 -1183,-1219 -2065,-1509 -876,-290 -2143,-435 -3792,-435l-6001 0 0 8948zm28177 3043l0 -10988 -9998 -14950 4130 0 5125 7849c955,1455 1842,2910 2651,4365 791,-1358 1751,-2879 2868,-4570l5023 -7644 4003 0 -10360 14950 0 10988 -3442 0z"/>
  <polygon class="fil3" points="4577,24905 4577,101884 0,101884 0,24905 "/>
 </g>
</svg>
