<?xml version="1.0" encoding="UTF-8"?>
<!DOCTYPE svg PUBLIC "-//W3C//DTD SVG 1.1//EN" "http://www.w3.org/Graphics/SVG/1.1/DTD/svg11.dtd">
<!-- Creator: CorelDRAW X7 -->
<svg xmlns="http://www.w3.org/2000/svg" xml:space="preserve" width="47.9639mm" height="19.556mm" version="1.1" style="shape-rendering:geometricPrecision; text-rendering:geometricPrecision; image-rendering:optimizeQuality; fill-rule:evenodd; clip-rule:evenodd"
viewBox="0 0 303888 123902"
 xmlns:xlink="http://www.w3.org/1999/xlink">
 <defs>
  <style type="text/css">
   <![CDATA[
    .fil0 {fill:none}
    .fil2 {fill:#9FA7B7}
    .fil1 {fill:#9FA7B7;fill-rule:nonzero}
   ]]>
  </style>
 </defs>
 <g id="menu">
  <metadata id="CorelCorpID_0Corel-Layer"/>
  <rect class="fil0" x="1" width="303888" height="123902"/>
 </g>
 <g id="__x003f__xe87c_惜_x0020_1">
  <metadata id="CorelCorpID_1Corel-Layer"/>
  <g id="_1095304688">
   <polygon class="fil1" points="31786,58569 41368,58569 44904,87541 45018,87541 49238,58569 58136,58569 62698,87541 62812,87541 66234,58569 75473,58569 68401,99290 57794,99290 53630,70375 53516,70375 49581,99290 38972,99290 "/>
   <polygon class="fil1" points="76952,58569 86533,58569 86533,99290 76952,99290 "/>
   <path class="fil1" d="M98565 86857l0 1425c0,3080 857,5418 4164,5418 3365,0 4335,-2509 4335,-4847 0,-8783 -17510,-3878 -17510,-19106 0,-6502 3479,-11977 13346,-11977 9582,0 13004,4848 13004,11122l0 969 -9240 0c0,-1939 -228,-3365 -799,-4277 -570,-971 -1483,-1426 -2907,-1426 -2396,0 -3822,1426 -3822,4391 0,8498 17509,4221 17509,18593 0,9239 -5133,12947 -13916,12947 -6957,0 -13403,-2111 -13403,-10609l0 -2623 9239 0z"/>
   <polygon class="fil1" points="119265,58569 142819,58569 142819,66325 128846,66325 128846,74481 141964,74481 141964,82236 128846,82236 128846,91534 143446,91534 143446,99290 119265,99290 "/>
   <polygon class="fil1" points="144757,78930 161980,78930 161980,86685 144757,86685 "/>
   <path class="fil1" d="M164887 58569l14828 0c10095,0 12035,7300 12035,12376 0,7300 -3479,12432 -13061,12432l-4221 0 0 15913 -9581 0 0 -40721zm9581 17737l0 0 2623 0c3822,0 4735,-2395 4735,-5134 0,-3136 -1027,-5531 -4905,-5531l-2453 0 0 10665z"/>
   <path class="fil1" d="M191919 77903c57,-4221 1312,-6787 3478,-8270 2168,-1484 4791,-1997 8613,-1997 7585,0 10950,2625 10950,9126l0 15855c0,2338 0,5304 1084,6673l-8897 0c-342,-1084 -456,-2338 -514,-3536l-114 0c-1255,2737 -4163,4335 -7242,4335 -5191,0 -8214,-2739 -8214,-9411 0,-3593 1483,-6616 3765,-7871 2281,-1254 5703,-1825 8269,-2509 2795,-741 3308,-1198 3308,-3536 0,-1882 -855,-3080 -2909,-3080 -2566,0 -3308,1540 -3364,4221l-8213 0zm10722 15797l0 0c1939,0 3707,-1141 3707,-4220 0,-2567 57,-4163 57,-5418 -2909,1540 -4163,1596 -5019,2281 -970,742 -1426,1711 -1426,3423 0,2452 970,3934 2681,3934z"/>
   <path class="fil1" d="M218437 77903c57,-4221 1312,-6787 3478,-8270 2168,-1484 4791,-1997 8613,-1997 7586,0 10950,2625 10950,9126l0 15855c0,2338 0,5304 1083,6673l-8896 0c-343,-1084 -457,-2338 -514,-3536l-114 0c-1255,2737 -4164,4335 -7243,4335 -5190,0 -8213,-2739 -8213,-9411 0,-3593 1483,-6616 3764,-7871 2282,-1254 5704,-1825 8270,-2509 2795,-741 3308,-1198 3308,-3536 0,-1882 -855,-3080 -2908,-3080 -2567,0 -3309,1540 -3365,4221l-8213 0zm10722 15797l0 0c1938,0 3707,-1141 3707,-4220 0,-2567 57,-4163 57,-5418 -2908,1540 -4164,1596 -5019,2281 -970,742 -1425,1711 -1425,3423 0,2452 969,3934 2680,3934z"/>
   <path class="fil1" d="M253452 86857l0 1425c0,3080 856,5418 4164,5418 3365,0 4335,-2509 4335,-4847 0,-8783 -17510,-3878 -17510,-19106 0,-6502 3479,-11977 13346,-11977 9582,0 13004,4848 13004,11122l0 969 -9240 0c0,-1939 -228,-3365 -798,-4277 -571,-971 -1484,-1426 -2909,-1426 -2395,0 -3821,1426 -3821,4391 0,8498 17509,4221 17509,18593 0,9239 -5132,12947 -13916,12947 -6958,0 -13402,-2111 -13402,-10609l0 -2623 9238 0z"/>
  </g>
  <path class="fil2" d="M31915 49849l0 -25606 9667 0c1699,0 2998,84 3898,245 1258,208 2313,607 3165,1192 853,590 1538,1412 2056,2467 519,1055 775,2217 775,3487 0,2169 -691,4011 -2080,5513 -1383,1508 -3892,2259 -7516,2259l-6568 0 0 10443 -3397 0zm3397 -13447l6616 0c2193,0 3743,-405 4667,-1221 918,-817 1377,-1961 1377,-3446 0,-1067 -269,-1985 -811,-2748 -542,-762 -1258,-1269 -2140,-1513 -572,-149 -1627,-227 -3159,-227l-6550 0 0 9155zm19418 983c0,-4243 1145,-7569 3428,-9971 2283,-2402 5227,-3600 8839,-3600 2366,0 4494,566 6395,1693 1895,1126 3344,2700 4339,4720 995,2015 1496,4304 1496,6861 0,2592 -524,4917 -1573,6961 -1049,2051 -2533,3600 -4452,4649 -1926,1055 -4000,1580 -6223,1580 -2414,0 -4566,-585 -6467,-1747 -1895,-1162 -3338,-2747 -4315,-4762 -978,-2009 -1467,-4136 -1467,-6384zm3505 60c0,3082 828,5508 2486,7278 1657,1770 3737,2658 6240,2658 2551,0 4643,-894 6294,-2682 1645,-1788 2468,-4327 2468,-7618 0,-2080 -352,-3897 -1055,-5447 -704,-1550 -1735,-2754 -3088,-3606 -1359,-852 -2879,-1282 -4565,-1282 -2396,0 -4459,823 -6187,2468 -1729,1645 -2593,4387 -2593,8231zm29766 12404l-6742 -25606 3517 0 3839 16791c417,1758 787,3504 1102,5232 674,-2729 1067,-4303 1180,-4720l4840 -17303 4083 0 3672 12964c899,3218 1567,6241 1996,9059 340,-1615 775,-3468 1305,-5561l4000 -16462 3403 0 -7009 25606 -3296 0 -5370 -19508c-453,-1634 -728,-2635 -829,-3004 -292,1168 -554,2169 -781,2997l-5370 19515 -3540 0zm29408 0l0 -25606 18489 0 0 3004 -15092 0 0 7868 14126 0 0 3004 -14126 0 0 8726 15699 0 0 3004 -19096 0zm23853 0l0 -25606 11348 0c2283,0 4017,233 5203,691 1186,460 2134,1270 2844,2433 709,1162 1060,2449 1060,3856 0,1817 -589,3349 -1764,4595 -1174,1246 -2986,2033 -5441,2372 899,430 1579,859 2044,1276 989,906 1925,2044 2801,3409l4428 6974 -4231 0 -3385 -5329c-984,-1544 -1800,-2718 -2438,-3535 -644,-816 -1216,-1382 -1723,-1710 -501,-322 -1019,-548 -1544,-679 -381,-78 -1007,-119 -1883,-119l-3922 0 0 11372 -3397 0zm3397 -14305l7272 0c1549,0 2753,-161 3624,-483 870,-316 1532,-828 1978,-1538 453,-703 680,-1466 680,-2295 0,-1209 -435,-2211 -1311,-2991 -877,-781 -2259,-1169 -4149,-1169l-8094 0 0 8476zm22429 14305l0 -25606 18489 0 0 3004 -15092 0 0 7868 14126 0 0 3004 -14126 0 0 8726 15699 0 0 3004 -19096 0zm23781 0l0 -25606 8821 0c1991,0 3511,119 4560,364 1466,339 2718,953 3755,1835 1353,1145 2360,2599 3028,4375 673,1777 1007,3809 1007,6092 0,1943 -226,3665 -679,5167 -453,1502 -1037,2748 -1747,3732 -715,983 -1490,1758 -2336,2318 -841,566 -1860,995 -3052,1287 -1198,292 -2569,436 -4118,436l-9239 0zm3397 -3004l5460 0c1687,0 3010,-155 3970,-471 959,-316 1722,-757 2295,-1329 798,-805 1424,-1890 1870,-3249 448,-1359 675,-3004 675,-4941 0,-2682 -442,-4744 -1318,-6187 -876,-1442 -1943,-2407 -3200,-2896 -906,-352 -2367,-525 -4382,-525l-5370 0 0 19598zm32299 3004l0 -25606 9608 0c1955,0 3523,257 4709,775 1179,518 2104,1317 2771,2396 673,1073 1007,2199 1007,3380 0,1090 -297,2122 -888,3087 -590,966 -1484,1746 -2682,2343 1550,453 2742,1227 3570,2324 835,1090 1252,2384 1252,3874 0,1204 -256,2319 -763,3350 -506,1031 -1132,1824 -1878,2384 -745,554 -1680,977 -2801,1264 -1126,285 -2503,429 -4136,429l-9769 0zm3398 -14841l5536 0c1503,0 2581,-102 3231,-299 864,-256 1514,-685 1949,-1281 435,-596 656,-1341 656,-2241 0,-853 -203,-1603 -614,-2247 -406,-650 -990,-1097 -1747,-1335 -757,-238 -2056,-358 -3892,-358l-5119 0 0 7761zm0 11837l6377 0c1096,0 1865,-42 2312,-126 775,-137 1431,-369 1955,-697 525,-328 954,-804 1293,-1430 341,-626 507,-1347 507,-2164 0,-960 -244,-1788 -738,-2497 -490,-709 -1169,-1204 -2039,-1491 -865,-285 -2116,-429 -3743,-429l-5924 0 0 8834zm27816 3004l0 -10848 -9870 -14758 4077 0 5059 7749c943,1436 1819,2872 2617,4309 781,-1341 1729,-2843 2832,-4512l4959 -7546 3951 0 -10228 14758 0 10848 -3397 0z"/>
 </g>
</svg>
