<?xml version="1.0" encoding="UTF-8"?>
<!DOCTYPE svg PUBLIC "-//W3C//DTD SVG 1.1//EN" "http://www.w3.org/Graphics/SVG/1.1/DTD/svg11.dtd">
<!-- Creator: CorelDRAW X7 -->
<svg xmlns="http://www.w3.org/2000/svg" xml:space="preserve" width="14.8164mm" height="14.8167mm" version="1.1" style="shape-rendering:geometricPrecision; text-rendering:geometricPrecision; image-rendering:optimizeQuality; fill-rule:evenodd; clip-rule:evenodd"
viewBox="0 0 38037 38037"
 xmlns:xlink="http://www.w3.org/1999/xlink">
 <defs>
  <style type="text/css">
   <![CDATA[
    .fil0 {fill:none}
    .fil1 {fill:white;fill-rule:nonzero}
   ]]>
  </style>
 </defs>
 <g id="圖層_x0020_1">
  <metadata id="CorelCorpID_0Corel-Layer"/>
  <rect class="fil0" width="38037" height="38037"/>
  <path class="fil1" d="M22641 22641l8151 0 0 1811 -6340 0 0 6340 -1811 0 0 -8151zm2717 906l7726 7670 -1839 1839 -7698 -7698 1811 -1811z"/>
  <path class="fil1" d="M15384 22642l0 8150 -1812 0 0 -6339 -6339 0 0 -1811 8151 0zm-906 2716l-7670 7727 -1839 -1840 7698 -7698 1811 1811z"/>
  <path class="fil1" d="M15396 15396l-8151 0 0 -1811 6339 0 0 -6339 1812 0 0 8150zm-2717 -905l-7727 -7670 1840 -1840 7698 7698 -1811 1812z"/>
  <path class="fil1" d="M22641 15396l0 -8151 1811 0 0 6340 6339 0 0 1811 -8150 0zm905 -2717l7670 -7726 1840 1840 -7698 7698 -1812 -1812z"/>
 </g>
</svg>
