<?xml version="1.0" encoding="UTF-8"?>
<!DOCTYPE svg PUBLIC "-//W3C//DTD SVG 1.1//EN" "http://www.w3.org/Graphics/SVG/1.1/DTD/svg11.dtd">
<!-- Creator: CorelDRAW X7 -->
<svg xmlns="http://www.w3.org/2000/svg" xml:space="preserve" width="14.8164mm" height="14.8167mm" version="1.1" style="shape-rendering:geometricPrecision; text-rendering:geometricPrecision; image-rendering:optimizeQuality; fill-rule:evenodd; clip-rule:evenodd"
viewBox="0 0 40886 40886"
 xmlns:xlink="http://www.w3.org/1999/xlink">
 <defs>
  <style type="text/css">
   <![CDATA[
    .fil0 {fill:none}
    .fil1 {fill:white;fill-rule:nonzero}
   ]]>
  </style>
 </defs>
 <g id="圖層_x0020_1">
  <metadata id="CorelCorpID_0Corel-Layer"/>
  <rect class="fil0" width="40886" height="40886"/>
  <path class="fil1" d="M6814 6815l8762 0 0 1946 -6815 0 0 6815 -1947 0 0 -8761zm2921 973l8305 8244 -1978 1977 -8274 -8274 1947 -1947z"/>
  <path class="fil1" d="M34072 6815l0 8761 -1947 0 0 -6814 -6814 0 0 -1947 8761 0zm-973 2920l-8245 8305 -1977 -1977 8274 -8275 1948 1947z"/>
  <path class="fil1" d="M34072 34072l-8762 0 0 -1947 6815 0 0 -6814 1947 0 0 8761zm-2921 -973l-8305 -8245 1978 -1977 8274 8274 -1947 1948z"/>
  <path class="fil1" d="M6814 34072l0 -8762 1947 0 0 6815 6814 0 0 1947 -8761 0zm974 -2921l8244 -8305 1977 1978 -8274 8274 -1947 -1947z"/>
 </g>
</svg>
